<svg width="441" height="441" viewBox="0 0 441 441" fill="none" xmlns="http://www.w3.org/2000/svg">
<circle cx="220.5" cy="220.5" r="112.5" stroke="#CFD9DC" stroke-width="2"/>
<circle cx="220.5" cy="220.5" r="140" stroke="#CFD9DC"/>
<circle cx="220.5" cy="220.5" r="219.5" stroke="#CFD9DC" stroke-linecap="round" stroke-linejoin="round" stroke-dasharray="2 10"/>
<circle cx="220.5" cy="220.5" r="180.5" stroke="#CFD9DC" stroke-linecap="round" stroke-linejoin="round" stroke-dasharray="2 4"/>
<g clip-path="url(#clip0_695_1125)">
<path d="M259.879 201.255C259.798 201.092 259.798 201.01 259.635 200.847C259.553 200.684 259.39 200.603 259.146 200.521L240.48 190.822L221.57 181.122C221.244 180.959 220.837 180.959 220.511 181.122L201.519 190.822L182.773 200.521C182.528 200.603 182.284 200.847 182.202 201.092C182.121 201.255 182.121 201.336 182.039 201.499V201.581V240.379C182.039 240.786 182.284 241.194 182.691 241.438L220.429 260.755C220.429 260.755 220.511 260.755 220.511 260.837C220.511 260.837 220.592 260.837 220.592 260.918C220.755 261 220.837 261 221 261C221.163 261 221.244 261 221.407 260.918C221.407 260.918 221.489 260.918 221.489 260.837C221.489 260.837 221.57 260.837 221.57 260.755L259.309 241.438C259.716 241.194 259.961 240.786 259.961 240.379V201.581C259.961 201.418 259.961 201.336 259.879 201.255ZM221 183.486L239.339 192.941L256.211 201.581L244.637 207.531L209.426 189.436L221 183.486ZM236.323 214.377L240.399 212.258L243.088 210.873V215.926L240.888 214.948C240.399 214.704 239.828 214.867 239.502 215.274L236.405 219.105V214.377H236.323ZM202.661 192.941L206.817 190.822L242.029 208.835L235.182 212.421L199.971 194.327L202.661 192.941ZM219.859 257.903L184.403 239.645V203.537L201.601 212.34L219.859 221.713V257.903ZM221 219.675L202.661 210.221L185.788 201.581L197.363 195.631L232.574 213.725L221 219.675ZM257.597 239.726L222.141 257.821V221.713L234.041 215.6V222.447C234.041 223.099 234.53 223.588 235.182 223.588C235.59 223.588 235.916 223.425 236.16 223.099L240.725 217.475L243.822 218.779C244.393 219.023 245.126 218.779 245.371 218.127C245.452 218.045 245.452 217.882 245.452 217.719V209.732L257.597 203.537V239.726Z" fill="#CFD9DC"/>
</g>
<defs>
<clipPath id="clip0_695_1125">
<rect width="80" height="80" fill="white" transform="translate(181 181)"/>
</clipPath>
</defs>
</svg>
