<svg width="80" height="80" viewBox="0 0 80 80" fill="none" xmlns="http://www.w3.org/2000/svg">
<g clip-path="url(#clip0_602_4222)">
<path d="M79.6008 41.4624L73.0859 35.8142C74.1644 34.3097 74.9957 32.6807 74.9957 31.2323C74.9957 27.1313 71.6589 23.7945 67.558 23.7945C65.3747 23.7945 63.4082 24.7406 62.0465 26.2439L46.5802 12.8351C47.1008 11.8488 47.4377 10.8569 47.4377 9.93774C47.4377 5.83679 44.1009 2.5 40 2.5C35.899 2.5 32.5622 5.83679 32.5622 9.93774C32.5622 10.8618 32.9034 11.8597 33.4283 12.8516L17.9956 26.2927C16.6327 24.7613 14.6484 23.7945 12.442 23.7945C8.34106 23.7945 5.00427 27.1313 5.00427 31.2323C5.00427 32.7063 5.86548 34.3677 6.97204 35.8942L0.397339 41.6205C-0.132446 42.0813 -0.132446 42.9309 0.397339 43.3917L39.2285 77.2131C39.6661 77.594 40.3369 77.5934 40.7733 77.2113L62.182 58.4784C62.6703 58.0517 62.7197 57.3096 62.2925 56.8213C61.8652 56.3336 61.123 56.2842 60.6354 56.7108L57.0489 59.8492L43.6798 44.5703V36.9342L60.2032 27.7539L60.755 28.2324C60.3485 29.1504 60.1208 30.1654 60.1208 31.2323C60.1208 35.1233 66.1151 40.3174 66.7987 40.8966C67.2314 41.2634 67.8851 41.2634 68.3172 40.8966C68.6377 40.625 70.1257 39.339 71.6162 37.6483L77.044 42.3535L64.9774 52.9114C64.5276 53.305 64.4482 53.996 64.7973 54.4812C65.1959 55.0354 66.0095 55.1294 66.524 54.6789L79.6051 43.233C80.1336 42.771 80.1312 41.922 79.6008 41.4624ZM40 4.84863C42.8058 4.84863 45.0885 7.13135 45.0885 9.93774C45.0885 11.8317 42.2229 15.0958 40 17.1381C38.6182 15.8685 36.9885 14.1272 35.9521 12.5354C35.9296 12.4951 35.9045 12.4561 35.8771 12.4176C35.2899 11.4929 34.9109 10.625 34.9109 9.93713C34.9109 7.13135 37.1936 4.84863 40 4.84863ZM39.2407 19.6014C39.6735 19.9689 40.3271 19.9689 40.7593 19.6014C41.1706 19.2529 43.504 17.2333 45.2978 14.8321L58.3142 26.1163L42.6849 34.7998L27.843 20.8307L34.7131 14.8474C36.5057 17.2418 38.8299 19.2541 39.2407 19.6014ZM12.442 26.1438C15.2478 26.1438 17.5305 28.4265 17.5305 31.2323C17.5305 33.1268 14.6649 36.391 12.442 38.4332C10.2191 36.3904 7.3529 33.1262 7.3529 31.2323C7.3529 28.4265 9.63562 26.1438 12.442 26.1438ZM8.4497 37.7215C9.9176 39.3756 11.3666 40.6287 11.6827 40.8966C12.1149 41.2634 12.7686 41.2634 13.2013 40.8966C13.8849 40.3174 19.8791 35.1233 19.8791 31.2323C19.8791 30.1892 19.6625 29.1962 19.2731 28.2947L26.0626 22.381L41.3306 36.7505V43.8373H29.9786C29.7241 43.8373 29.4769 43.9197 29.2737 44.0716L16.0986 53.9532L2.95593 42.5061L8.4497 37.7215ZM39.9982 74.7687L17.9102 55.5304L30.3705 46.1853H41.9726L55.2814 61.3959L39.9982 74.7687ZM67.558 38.4332C65.3351 36.3904 62.4689 33.1262 62.4689 31.2323C62.4689 28.4265 64.7522 26.1438 67.558 26.1438C70.3637 26.1438 72.6471 28.4265 72.6471 31.2323C72.6471 33.1262 69.7809 36.391 67.558 38.4332Z" fill="url(#paint0_linear_602_4222)"/>
<path d="M40.0001 13.6169C42.0289 13.6169 43.6799 11.9666 43.6799 9.93774C43.6799 7.90832 42.0289 6.25793 40.0001 6.25793C37.9713 6.25793 36.3203 7.90832 36.3203 9.93774C36.3203 11.9666 37.9713 13.6169 40.0001 13.6169ZM40.0001 8.60657C40.7338 8.60657 41.3313 9.20349 41.3313 9.93774C41.3313 10.6714 40.7338 11.2683 40.0001 11.2683C39.2665 11.2683 38.6689 10.6714 38.6689 9.93774C38.6689 9.20349 39.2665 8.60657 40.0001 8.60657Z" fill="url(#paint1_linear_602_4222)"/>
<path d="M67.5577 27.5525C65.5289 27.5525 63.8779 29.2035 63.8779 31.2323C63.8779 33.2611 65.5289 34.9121 67.5577 34.9121C69.5865 34.9121 71.2375 33.2611 71.2375 31.2323C71.2375 29.2035 69.5865 27.5525 67.5577 27.5525ZM67.5577 32.5635C66.8241 32.5635 66.2266 31.9666 66.2266 31.2323C66.2266 30.4987 66.8241 29.9017 67.5577 29.9017C68.2914 29.9017 68.8889 30.4987 68.8889 31.2323C68.8889 31.9666 68.2914 32.5635 67.5577 32.5635Z" fill="url(#paint2_linear_602_4222)"/>
<path d="M32.5625 60.0432C32.5625 63.9336 38.5574 69.1277 39.241 69.7069C39.4595 69.8931 39.7299 69.9858 40.0002 69.9858C40.2706 69.9858 40.5404 69.8931 40.7595 69.7069C41.4431 69.1277 47.438 63.9336 47.438 60.0432C47.438 55.9416 44.1012 52.6055 40.0002 52.6055C35.8993 52.6055 32.5625 55.9416 32.5625 60.0432ZM45.0887 60.0432C45.0887 61.9371 42.2231 65.2013 40.0002 67.2435C37.7773 65.2013 34.9111 61.9365 34.9111 60.0432C34.9111 57.2368 37.1938 54.9541 40.0002 54.9541C42.806 54.9541 45.0887 57.2368 45.0887 60.0432Z" fill="url(#paint3_linear_602_4222)"/>
<path d="M36.3203 60.0433C36.3203 62.0721 37.9713 63.7225 40.0001 63.7225C42.0289 63.7225 43.6799 62.0721 43.6799 60.0433C43.6799 58.0139 42.0289 56.3635 40.0001 56.3635C37.9713 56.3635 36.3203 58.0139 36.3203 60.0433ZM41.3313 60.0433C41.3313 60.777 40.7338 61.3739 40.0001 61.3739C39.2665 61.3739 38.6689 60.777 38.6689 60.0433C38.6689 59.3091 39.2665 58.7122 40.0001 58.7122C40.7338 58.7122 41.3313 59.3091 41.3313 60.0433Z" fill="url(#paint4_linear_602_4222)"/>
<path d="M16.1213 31.2323C16.1213 29.2035 14.4703 27.5525 12.4415 27.5525C10.4127 27.5525 8.76172 29.2035 8.76172 31.2323C8.76172 33.2611 10.4127 34.9121 12.4415 34.9121C14.4703 34.9121 16.1213 33.2611 16.1213 31.2323ZM11.1104 31.2323C11.1104 30.4987 11.7073 29.9017 12.4415 29.9017C13.1752 29.9017 13.7721 30.4987 13.7721 31.2323C13.7721 31.9666 13.1752 32.5635 12.4415 32.5635C11.7073 32.5635 11.1104 31.9659 11.1104 31.2323Z" fill="url(#paint5_linear_602_4222)"/>
</g>
<defs>
<linearGradient id="paint0_linear_602_4222" x1="40" y1="2.5" x2="40" y2="77.4983" gradientUnits="userSpaceOnUse">
<stop stop-color="#24C0EB"/>
<stop offset="1" stop-color="#6BD369"/>
</linearGradient>
<linearGradient id="paint1_linear_602_4222" x1="40.0001" y1="6.25793" x2="40.0001" y2="13.6169" gradientUnits="userSpaceOnUse">
<stop stop-color="#24C0EB"/>
<stop offset="1" stop-color="#6BD369"/>
</linearGradient>
<linearGradient id="paint2_linear_602_4222" x1="67.5577" y1="27.5525" x2="67.5577" y2="34.9121" gradientUnits="userSpaceOnUse">
<stop stop-color="#24C0EB"/>
<stop offset="1" stop-color="#6BD369"/>
</linearGradient>
<linearGradient id="paint3_linear_602_4222" x1="40.0002" y1="52.6055" x2="40.0002" y2="69.9858" gradientUnits="userSpaceOnUse">
<stop stop-color="#24C0EB"/>
<stop offset="1" stop-color="#6BD369"/>
</linearGradient>
<linearGradient id="paint4_linear_602_4222" x1="40.0001" y1="56.3635" x2="40.0001" y2="63.7225" gradientUnits="userSpaceOnUse">
<stop stop-color="#24C0EB"/>
<stop offset="1" stop-color="#6BD369"/>
</linearGradient>
<linearGradient id="paint5_linear_602_4222" x1="12.4415" y1="27.5525" x2="12.4415" y2="34.9121" gradientUnits="userSpaceOnUse">
<stop stop-color="#24C0EB"/>
<stop offset="1" stop-color="#6BD369"/>
</linearGradient>
<clipPath id="clip0_602_4222">
<rect width="80" height="80" fill="white"/>
</clipPath>
</defs>
</svg>
