<svg width="80" height="80" viewBox="0 0 80 80" fill="none" xmlns="http://www.w3.org/2000/svg">
<g clip-path="url(#clip0_602_4112)">
<path d="M79.2945 37.0829C79.264 36.4669 78.7377 35.9608 78.1179 35.9608H64.5294L66.7343 30.932C66.8582 30.6495 66.8651 30.3165 66.7532 30.0291L65.6243 27.1312C66.2527 26.9005 66.862 26.6188 67.4451 26.287L70.2754 28.0374C70.7987 28.3292 71.2969 28.2593 71.7699 27.828L74.5066 24.822C74.8936 24.3969 74.9183 23.755 74.5651 23.3013L72.5329 20.6917C72.782 20.1357 72.9879 19.5625 73.1493 18.9769L76.3948 18.2277C76.9525 18.099 77.3375 17.5888 77.3085 17.0172L77.1042 12.972C77.0753 12.4004 76.6407 11.9319 76.0731 11.86L72.7686 11.4417C72.5491 10.8755 72.2863 10.3261 71.9824 9.79794L73.7411 6.9969C74.0468 6.51001 73.9576 5.87368 73.5296 5.48993L70.5039 2.77503C70.0806 2.39522 69.4468 2.37112 68.9958 2.7174L66.3565 4.74417C65.7926 4.49489 65.2115 4.28893 64.6177 4.12831L63.8669 0.912814C63.7369 0.35648 63.2259 -0.0302614 62.6573 0.001862L58.5823 0.207673C58.0118 0.236489 57.5438 0.669526 57.4706 1.23594L57.0478 4.5108C56.4732 4.73062 55.9157 4.99391 55.38 5.29892L52.5497 3.54851C52.0661 3.24964 51.438 3.33735 51.0552 3.75794L48.3185 6.76401C47.9315 7.18901 47.9068 7.83101 48.2601 8.28467L50.2922 10.8941C50.0986 11.3265 49.9335 11.7699 49.7926 12.2207L44.2609 9.79542C43.5745 9.56835 43.056 9.77086 42.7051 10.4028L38.0097 21.112V2.7659C38.0097 1.23893 35.6477 1.23893 35.6477 2.7659V7.93887C27.5532 8.28105 20.0877 12.5579 15.606 19.4514C14.8013 20.6889 16.7122 22.0831 17.5863 20.7388C21.6323 14.5155 28.3544 10.6434 35.6477 10.3026V60.3039H28.3656C27.3722 60.3039 26.564 59.4907 26.564 58.4911V54.4418C26.564 54.0074 26.3255 53.608 25.943 53.4019C18.4272 49.3543 13.8083 41.5261 13.889 32.972C13.9101 30.7365 14.2573 28.5253 14.921 26.3999C15.3761 24.9424 13.1215 24.2381 12.6664 25.6959C11.9337 28.042 11.5504 30.4826 11.5273 32.9498C11.4407 42.1455 16.2793 50.581 24.2022 55.1359V58.4911C24.2022 60.3817 25.4625 61.9819 27.1848 62.4938V68.0886C27.1848 71.7014 30.1241 74.6407 33.7369 74.6407H35.6479V78.8188C35.6479 80.3458 38.0099 80.3458 38.0099 78.8188V50.5516L50.0436 55.8277L49.7729 57.3703C49.3756 57.5052 48.9878 57.6647 48.6116 57.848L46.491 56.3705C46.0216 56.0433 45.3849 56.0996 44.9804 56.5048L42.6478 58.8394C42.2433 59.2443 42.1874 59.8809 42.5149 60.3502L43.9945 62.4694C43.8115 62.8459 43.6523 63.2337 43.5177 63.6313L40.9923 64.077C40.4261 64.177 40.0143 64.67 40.0165 65.2448L40.0301 68.5571C40.0324 69.1257 40.4396 69.612 40.999 69.7142L43.5396 70.1779C43.6783 70.5807 43.8422 70.9739 44.0302 71.3553L42.5714 73.46C42.2461 73.9294 42.3033 74.5646 42.7075 74.9682L45.0591 77.3178C45.463 77.7214 46.0981 77.7783 46.5675 77.4523L48.671 75.9918C49.0525 76.1795 49.4459 76.3429 49.8487 76.4813L50.3148 79.0216C50.4174 79.5809 50.904 79.9877 51.4726 79.9894L54.785 79.9998H54.7887C55.3619 79.9998 55.8528 79.588 55.952 79.023L56.3954 76.4972C56.7928 76.3623 57.1805 76.2028 57.5567 76.0195L59.6772 77.497C60.1467 77.8244 60.7834 77.768 61.1878 77.3627L63.5203 75.0281C63.9249 74.6232 63.9808 73.9866 63.6532 73.5173L62.1737 71.3981C62.3567 71.0216 62.5159 70.6338 62.6505 70.2362L65.1758 69.7905C65.7419 69.6905 66.1538 69.1975 66.1516 68.6227L66.1382 65.3104C66.1359 64.7418 65.7287 64.2555 65.1693 64.1533L62.7812 63.7175C66.1612 63.7024 69.594 63.7019 72.9317 63.7019C73.3226 63.7753 73.6835 63.6584 74.0145 63.3512L78.9783 58.073C79.1843 57.8538 79.2991 57.5646 79.2991 57.2638V37.1418C79.2989 37.1219 79.2955 37.1027 79.2945 37.0829ZM75.3859 38.3228L72.6949 41.1841H55.7507L58.4418 38.3228H75.3859ZM62.0583 17.977C61.9469 17.691 61.7134 17.4473 61.432 17.3241L56.9495 15.3588C57.1635 13.2063 58.944 11.4682 61.1882 11.3548C63.6613 11.2347 65.768 13.1197 65.8918 15.5668C65.9932 17.5729 64.718 19.3769 62.8475 20.0031L62.0583 17.977ZM60.8892 21.4838L62.1649 24.7583L63.5142 28.2223L58.8273 26.1521L60.8892 21.4838ZM52.6078 10.0231L50.735 7.61843L52.1415 6.07335L54.7547 7.68945C55.1448 7.93053 55.6392 7.92423 56.0231 7.67291C56.7848 7.17374 57.6104 6.784 58.4766 6.51442C58.9174 6.37726 59.2377 5.99572 59.2969 5.53796L59.6869 2.51694L61.791 2.41065L62.4836 5.37687C62.5886 5.82644 62.9459 6.17366 63.3983 6.26578C64.2869 6.44639 65.1475 6.75109 65.9561 7.17106C66.3631 7.38238 66.856 7.33876 67.2196 7.05957L69.6564 5.18823L71.2115 6.58355L69.5907 9.16508C69.3438 9.55827 69.3503 10.0598 69.6071 10.4466C70.1085 11.2016 70.4998 12.0193 70.7702 12.8772C70.9087 13.3172 71.2907 13.6361 71.7484 13.694L74.795 14.0796L74.8996 16.1493L71.9072 16.8401C71.4578 16.9437 71.11 17.2997 71.0164 17.7512C70.8341 18.632 70.5272 19.4851 70.1044 20.2866C69.8879 20.6972 69.932 21.1967 70.2171 21.5632L72.0901 23.968L70.6834 25.5131L68.0702 23.897C67.6802 23.6559 67.1857 23.6622 66.802 23.9134C66.1634 24.3318 65.4802 24.6719 64.7664 24.93L63.7047 22.2047C66.5051 21.2144 68.4039 18.4829 68.2504 15.4476C68.0609 11.6997 64.8396 8.80511 61.0687 8.99596C57.9058 9.15579 55.347 11.4366 54.7158 14.3796L51.9697 13.1756C52.1527 12.5283 52.404 11.8998 52.7204 11.2999C52.9372 10.889 52.8931 10.3895 52.6078 10.0231ZM33.7365 72.2788C31.4262 72.2788 29.5465 70.3991 29.5465 68.0888V62.6659H35.6476V72.2788H33.7365ZM38.0097 26.9944L44.3941 12.433L59.3989 19.0119L56.1894 26.2779C55.9603 26.9637 56.1614 27.4827 56.7925 27.8354L64.0979 31.0624L61.9502 35.9609H57.9312C57.6054 35.9609 57.2941 36.0954 57.0709 36.3327L52.1071 41.6109C51.8636 41.8696 51.7358 42.5598 51.766 42.9319V53.8691L51.4561 53.8682L38.0097 47.9727V26.9944ZM63.7855 67.6375L61.5211 68.0371C61.0638 68.1179 60.6963 68.459 60.5818 68.9089C60.4048 69.6047 60.1324 70.2691 59.7721 70.8835C59.5389 71.2814 59.5586 71.7787 59.8227 72.1568L61.1501 74.0584L60.2157 74.9936L58.3129 73.6677C57.9345 73.4039 57.437 73.3849 57.0394 73.6184C56.4256 73.9792 55.7614 74.2521 55.0657 74.4298C54.6158 74.5446 54.2751 74.9125 54.1948 75.3699L53.7972 77.6348L52.4606 77.6305L52.0416 75.3469C51.9587 74.8958 51.6222 74.5333 51.1785 74.4174C50.4798 74.2349 49.812 73.957 49.1933 73.5915C48.796 73.3567 48.2982 73.375 47.9189 73.6383L46.0302 74.9495L45.0744 73.9948L46.384 72.105C46.6469 71.7257 46.6648 71.2279 46.4296 70.8306C46.0634 70.2119 45.7849 69.5443 45.6017 68.8459C45.4854 68.4023 45.1227 68.0661 44.6714 67.9836L42.3875 67.5666L42.382 66.2302L44.6462 65.8305C45.1035 65.7497 45.4711 65.4087 45.5855 64.9588C45.7625 64.2629 46.0349 63.5986 46.3952 62.9841C46.6284 62.5862 46.6088 62.0889 46.3448 61.7109L45.0172 59.8093L45.9516 58.8741L47.8543 60.1999C48.2326 60.4639 48.73 60.4829 49.1276 60.2492C49.7421 59.8885 50.4061 59.6154 51.1016 59.4378C51.5515 59.323 51.8923 58.9552 51.9726 58.4977L52.37 56.2329L53.7066 56.2371L54.1256 58.5207C54.2085 58.9719 54.545 59.3344 54.9887 59.4502C55.6876 59.6328 56.3554 59.9107 56.9739 60.2762C57.3714 60.5111 57.8693 60.4928 58.2483 60.2294L60.1368 58.9182L61.0927 59.8729L59.783 61.7627C59.52 62.142 59.5022 62.6398 59.7373 63.037C60.1034 63.6557 60.382 64.3234 60.5651 65.0218C60.6815 65.4654 61.0442 65.8016 61.4955 65.8841L63.7795 66.301L63.7855 67.6375ZM74.3384 59.5592C74.3379 58.3963 74.3351 55.5233 74.3351 55.5233C74.3351 53.9963 71.9731 53.9963 71.9731 55.5233V61.34C68.9914 61.3402 65.9472 61.3424 62.9398 61.3554L63.5965 60.4076C63.9219 59.9382 63.8647 59.303 63.4607 58.8994L61.1089 56.5498C60.7048 56.1463 60.0697 56.0894 59.6005 56.4154L57.4972 57.8759C57.1156 57.6882 56.7223 57.5247 56.3195 57.3863L55.8534 54.846C55.7046 54.0351 54.8484 53.7729 54.1444 53.8764C54.125 52.5646 54.2672 45.7058 54.1444 43.6009H71.9732V49.3572C71.9732 50.8841 74.3352 50.8841 74.3352 49.3572C74.3352 49.3572 74.3389 44.9167 74.3389 42.8843L76.9371 40.1217V56.7963L74.3384 59.5592Z" fill="url(#paint0_linear_602_4112)"/>
<path d="M53.0798 61.5691C53.0739 61.569 53.0681 61.569 53.0623 61.569C51.6367 61.569 50.2989 62.1226 49.2936 63.1287C48.2842 64.139 47.7315 65.4841 47.7374 66.9163C47.7432 68.3453 48.3047 69.6901 49.3185 70.7029C50.3323 71.7157 51.6774 72.276 53.1064 72.2806H53.1239C54.5494 72.2806 55.8874 71.7269 56.8927 70.7208C57.9021 69.7105 58.4548 68.3654 58.4489 66.9333C58.4431 65.5044 57.8816 64.1596 56.868 63.1468C55.8539 62.134 54.5086 61.5737 53.0798 61.5691ZM55.2215 69.0514C54.6603 69.6131 53.911 69.9272 53.1136 69.9186C52.3124 69.916 51.5574 69.6011 50.9878 69.032C50.4181 68.4628 50.1025 67.708 50.0992 66.9068C50.0959 66.1088 50.4033 65.36 50.9645 64.7982C51.5256 64.2365 52.2778 63.9258 53.0722 63.931C53.8734 63.9337 54.6285 64.2484 55.1982 64.8177C55.7679 65.3868 56.0835 66.1415 56.0866 66.9427C56.0899 67.7409 55.7827 68.4895 55.2215 69.0514Z" fill="url(#paint1_linear_602_4112)"/>
<path d="M16.0134 13.5937C17.0048 13.5937 17.5497 12.2788 16.8486 11.5776L12.8215 7.54992C11.7419 6.47001 10.0715 8.14027 11.1513 9.21987L15.1782 13.2477C15.4089 13.4784 15.7112 13.5937 16.0134 13.5937Z" fill="url(#paint2_linear_602_4112)"/>
<path d="M7.5404 32.2001H1.84542C0.318454 32.2001 0.318454 34.5621 1.84542 34.5621H7.54056C9.06753 34.5621 9.06753 32.2001 7.5404 32.2001Z" fill="url(#paint3_linear_602_4112)"/>
<path d="M15.5383 53.3654L11.5114 57.3931C10.4316 58.4728 12.102 60.1431 13.1816 59.063L17.2086 55.0353C18.2883 53.9556 16.6179 52.2855 15.5383 53.3654Z" fill="url(#paint4_linear_602_4112)"/>
</g>
<defs>
<linearGradient id="paint0_linear_602_4112" x1="45.4126" y1="0" x2="45.4126" y2="79.9998" gradientUnits="userSpaceOnUse">
<stop stop-color="#24C0EB"/>
<stop offset="1" stop-color="#6BD369"/>
</linearGradient>
<linearGradient id="paint1_linear_602_4112" x1="53.0932" y1="61.569" x2="53.0932" y2="72.2806" gradientUnits="userSpaceOnUse">
<stop stop-color="#24C0EB"/>
<stop offset="1" stop-color="#6BD369"/>
</linearGradient>
<linearGradient id="paint2_linear_602_4112" x1="13.9836" y1="7.20056" x2="13.9836" y2="13.5937" gradientUnits="userSpaceOnUse">
<stop stop-color="#24C0EB"/>
<stop offset="1" stop-color="#6BD369"/>
</linearGradient>
<linearGradient id="paint3_linear_602_4112" x1="4.69298" y1="32.2001" x2="4.69298" y2="34.5621" gradientUnits="userSpaceOnUse">
<stop stop-color="#24C0EB"/>
<stop offset="1" stop-color="#6BD369"/>
</linearGradient>
<linearGradient id="paint4_linear_602_4112" x1="14.36" y1="53.016" x2="14.36" y2="59.4125" gradientUnits="userSpaceOnUse">
<stop stop-color="#24C0EB"/>
<stop offset="1" stop-color="#6BD369"/>
</linearGradient>
<clipPath id="clip0_602_4112">
<rect width="80" height="80" fill="white"/>
</clipPath>
</defs>
</svg>
