<svg width="80" height="80" viewBox="0 0 80 80" fill="none" xmlns="http://www.w3.org/2000/svg">
<mask id="mask0_602_4067" style="mask-type:luminance" maskUnits="userSpaceOnUse" x="0" y="0" width="80" height="80">
<path d="M0 7.62939e-06H80V80H0V7.62939e-06Z" fill="white"/>
</mask>
<g mask="url(#mask0_602_4067)">
<path d="M55.4863 10.1513C55.7637 10.2955 56.039 10.4437 56.3118 10.5952" stroke="url(#paint0_linear_602_4067)" stroke-width="2.5" stroke-linecap="round" stroke-linejoin="round"/>
<path d="M60.3916 13.2681C68.4327 19.4111 73.6196 29.0992 73.6196 40C73.6196 47.1116 71.4114 53.7069 67.6444 59.1389" stroke="url(#paint1_linear_602_4067)" stroke-width="2.5" stroke-linecap="round" stroke-linejoin="round" stroke-dasharray="2 4"/>
<path d="M66.1841 61.0907C65.9886 61.3334 65.7897 61.5731 65.5877 61.8101C65.5877 61.8116 65.5859 61.8116 65.5859 61.8116" stroke="url(#paint2_linear_602_4067)" stroke-width="2.5" stroke-linecap="round" stroke-linejoin="round"/>
<path d="M14.4145 61.8115C14.4145 61.8115 14.4128 61.8115 14.4128 61.81C14.2108 61.5731 14.0119 61.3332 13.8164 61.0906" stroke="url(#paint3_linear_602_4067)" stroke-width="2.5" stroke-linecap="round" stroke-linejoin="round"/>
<path d="M11.0374 57.082C8.07898 52.0759 6.38086 46.2364 6.38086 40C6.38086 28.2239 12.4341 17.8631 21.6001 11.8581" stroke="url(#paint4_linear_602_4067)" stroke-width="2.5" stroke-linecap="round" stroke-linejoin="round" stroke-dasharray="2 4"/>
<path d="M23.6895 10.5952C23.9623 10.4435 24.2376 10.2955 24.5149 10.1513" stroke="url(#paint5_linear_602_4067)" stroke-width="2.5" stroke-linecap="round" stroke-linejoin="round"/>
<path d="M56.7312 25.2C57.4453 23.2719 57.8359 21.1844 57.8359 19.0078C57.8359 9.15782 49.85 1.17188 40 1.17188C30.15 1.17188 22.1641 9.15782 22.1641 19.0078C22.1641 28.8578 30.15 36.8438 40 36.8438C45.7203 36.8438 50.8125 34.15 54.075 29.9609" stroke="url(#paint6_linear_602_4067)" stroke-width="2.5" stroke-miterlimit="10" stroke-linecap="round" stroke-linejoin="round"/>
<path d="M40.0008 21.5329C38.6059 21.5329 37.4753 20.4023 37.4753 19.0074C37.4753 17.6127 38.6059 16.4821 40.0008 16.4821C41.3956 16.4821 42.5261 17.6127 42.5261 19.0074C42.5261 20.4023 41.3956 21.5329 40.0008 21.5329ZM47.8911 18.9466L50.2101 16.4288C50.6778 15.921 50.7612 15.1682 50.4159 14.5704L49.0511 12.2062C48.7059 11.6082 48.0122 11.3041 47.3386 11.4552L43.9997 12.2044C43.9598 12.1813 43.9328 12.1659 43.893 12.1429L42.8723 8.87663C42.6664 8.21773 42.0561 7.76913 41.3658 7.76913H38.6358C37.9455 7.76913 37.3351 8.21773 37.1292 8.87663L36.1086 12.1429C36.0687 12.1659 36.0417 12.1813 36.0019 12.2044L32.663 11.4552C31.9894 11.3041 31.2956 11.6082 30.9505 12.2062L29.5856 14.5704C29.2403 15.1682 29.3237 15.921 29.7914 16.4288L32.1105 18.9466V19.0684L29.7914 21.586C29.3237 22.0938 29.2403 22.8466 29.5856 23.4446L30.9505 25.8088C31.2956 26.4066 31.9894 26.7109 32.663 26.5596L36.0019 25.8105C36.0417 25.8335 36.0687 25.8491 36.1086 25.8721L37.1292 29.1383C37.3351 29.7973 37.9455 30.2458 38.6358 30.2458H41.3658C42.0561 30.2458 42.6664 29.7973 42.8723 29.1383L43.8931 25.8718C43.9328 25.8488 43.9595 25.8333 43.9994 25.8104L47.3386 26.5596C48.0122 26.7109 48.7059 26.4066 49.0511 25.8088L50.4159 23.4446C50.7612 22.8466 50.6778 22.0938 50.2101 21.586L47.8911 19.0684V18.9466Z" stroke="url(#paint7_linear_602_4067)" stroke-width="2.5" stroke-miterlimit="10" stroke-linecap="round" stroke-linejoin="round"/>
<path d="M42.9209 54.2891C43.7384 53.8344 44.6807 53.5741 45.6831 53.5741H53.8906C54.8928 53.5741 55.8351 53.8344 56.6528 54.2891" stroke="url(#paint8_linear_602_4067)" stroke-width="2.5" stroke-miterlimit="10" stroke-linecap="round" stroke-linejoin="round"/>
<path d="M56.0999 47.2605C56.0999 50.7474 53.2734 53.5741 49.7865 53.5741C46.2996 53.5741 43.4729 50.7474 43.4729 47.2605C43.4729 43.7736 46.2996 40.9471 49.7865 40.9471C53.2734 40.9471 56.0999 43.7736 56.0999 47.2605Z" stroke="url(#paint9_linear_602_4067)" stroke-width="2.5" stroke-miterlimit="10" stroke-linecap="round" stroke-linejoin="round"/>
<path d="M23.3486 54.2891C24.1661 53.8344 25.1086 53.5741 26.1108 53.5741H34.3183C35.3207 53.5741 36.2629 53.8344 37.0805 54.2891" stroke="url(#paint10_linear_602_4067)" stroke-width="2.5" stroke-miterlimit="10" stroke-linecap="round" stroke-linejoin="round"/>
<path d="M36.5284 47.2606C36.5284 50.7475 33.7017 53.5742 30.215 53.5742C26.7279 53.5742 23.9014 50.7475 23.9014 47.2606C23.9014 43.7737 26.7279 40.9472 30.215 40.9472C33.7017 40.9472 36.5284 43.7737 36.5284 47.2606Z" stroke="url(#paint11_linear_602_4067)" stroke-width="2.5" stroke-miterlimit="10" stroke-linecap="round" stroke-linejoin="round"/>
<path d="M30.2148 71.8833V78.8281H49.7867V71.8833C49.7867 68.7452 47.2428 66.2011 44.1047 66.2011H35.8969C32.7588 66.2011 30.2148 68.7452 30.2148 71.8833Z" stroke="url(#paint12_linear_602_4067)" stroke-width="2.5" stroke-miterlimit="10" stroke-linecap="round" stroke-linejoin="round"/>
<path d="M46.3136 59.8876C46.3136 63.3745 43.4868 66.2012 40.0001 66.2012C36.5132 66.2012 33.6865 63.3745 33.6865 59.8876C33.6865 56.4007 36.5132 53.5741 40.0001 53.5741C43.4868 53.5741 46.3136 56.4007 46.3136 59.8876Z" stroke="url(#paint13_linear_602_4067)" stroke-width="2.5" stroke-miterlimit="10" stroke-linecap="round" stroke-linejoin="round"/>
<path d="M65.2348 78.8281H69.3583V71.8828C69.3583 68.7453 66.8145 66.2016 63.6754 66.2016H55.4692C52.3301 66.2016 49.7864 68.7453 49.7864 71.8828V78.8281H59.7661" stroke="url(#paint14_linear_602_4067)" stroke-width="2.5" stroke-miterlimit="10" stroke-linecap="round" stroke-linejoin="round"/>
<path d="M65.8858 59.8876C65.8858 63.3745 63.0591 66.2012 59.5722 66.2012C56.0854 66.2012 53.2588 63.3745 53.2588 59.8876C53.2588 56.4007 56.0854 53.5741 59.5722 53.5741C63.0591 53.5741 65.8858 56.4007 65.8858 59.8876Z" stroke="url(#paint15_linear_602_4067)" stroke-width="2.5" stroke-miterlimit="10" stroke-linecap="round" stroke-linejoin="round"/>
<path d="M20.2348 78.8281H30.2145V71.8828C30.2145 68.7453 27.6707 66.2016 24.5316 66.2016H16.3254C13.1863 66.2016 10.6426 68.7453 10.6426 71.8828V78.8281H14.766" stroke="url(#paint16_linear_602_4067)" stroke-width="2.5" stroke-miterlimit="10" stroke-linecap="round" stroke-linejoin="round"/>
<path d="M26.742 59.8876C26.742 63.3745 23.9153 66.2012 20.4286 66.2012C16.9416 66.2012 14.115 63.3745 14.115 59.8876C14.115 56.4007 16.9416 53.5741 20.4286 53.5741C23.9153 53.5741 26.742 56.4007 26.742 59.8876Z" stroke="url(#paint17_linear_602_4067)" stroke-width="2.5" stroke-miterlimit="10" stroke-linecap="round" stroke-linejoin="round"/>
</g>
<defs>
<linearGradient id="paint0_linear_602_4067" x1="55.8991" y1="10.5952" x2="55.8991" y2="10.1513" gradientUnits="userSpaceOnUse">
<stop stop-color="#24C0EB"/>
<stop offset="1" stop-color="#6BD369"/>
</linearGradient>
<linearGradient id="paint1_linear_602_4067" x1="67.0056" y1="59.1389" x2="67.0056" y2="13.2681" gradientUnits="userSpaceOnUse">
<stop stop-color="#24C0EB"/>
<stop offset="1" stop-color="#6BD369"/>
</linearGradient>
<linearGradient id="paint2_linear_602_4067" x1="65.885" y1="61.8116" x2="65.885" y2="61.0907" gradientUnits="userSpaceOnUse">
<stop stop-color="#24C0EB"/>
<stop offset="1" stop-color="#6BD369"/>
</linearGradient>
<linearGradient id="paint3_linear_602_4067" x1="14.1155" y1="61.8115" x2="14.1155" y2="61.0906" gradientUnits="userSpaceOnUse">
<stop stop-color="#24C0EB"/>
<stop offset="1" stop-color="#6BD369"/>
</linearGradient>
<linearGradient id="paint4_linear_602_4067" x1="13.9905" y1="57.082" x2="13.9905" y2="11.8581" gradientUnits="userSpaceOnUse">
<stop stop-color="#24C0EB"/>
<stop offset="1" stop-color="#6BD369"/>
</linearGradient>
<linearGradient id="paint5_linear_602_4067" x1="24.1022" y1="10.5952" x2="24.1022" y2="10.1513" gradientUnits="userSpaceOnUse">
<stop stop-color="#24C0EB"/>
<stop offset="1" stop-color="#6BD369"/>
</linearGradient>
<linearGradient id="paint6_linear_602_4067" x1="40" y1="36.8438" x2="40" y2="1.17188" gradientUnits="userSpaceOnUse">
<stop stop-color="#24C0EB"/>
<stop offset="1" stop-color="#6BD369"/>
</linearGradient>
<linearGradient id="paint7_linear_602_4067" x1="40.0008" y1="30.2458" x2="40.0008" y2="7.76913" gradientUnits="userSpaceOnUse">
<stop stop-color="#24C0EB"/>
<stop offset="1" stop-color="#6BD369"/>
</linearGradient>
<linearGradient id="paint8_linear_602_4067" x1="49.7868" y1="54.2891" x2="49.7868" y2="53.5741" gradientUnits="userSpaceOnUse">
<stop stop-color="#24C0EB"/>
<stop offset="1" stop-color="#6BD369"/>
</linearGradient>
<linearGradient id="paint9_linear_602_4067" x1="49.7864" y1="53.5741" x2="49.7864" y2="40.9471" gradientUnits="userSpaceOnUse">
<stop stop-color="#24C0EB"/>
<stop offset="1" stop-color="#6BD369"/>
</linearGradient>
<linearGradient id="paint10_linear_602_4067" x1="30.2146" y1="54.2891" x2="30.2146" y2="53.5741" gradientUnits="userSpaceOnUse">
<stop stop-color="#24C0EB"/>
<stop offset="1" stop-color="#6BD369"/>
</linearGradient>
<linearGradient id="paint11_linear_602_4067" x1="30.2149" y1="53.5742" x2="30.2149" y2="40.9472" gradientUnits="userSpaceOnUse">
<stop stop-color="#24C0EB"/>
<stop offset="1" stop-color="#6BD369"/>
</linearGradient>
<linearGradient id="paint12_linear_602_4067" x1="40.0008" y1="78.8281" x2="40.0008" y2="66.2011" gradientUnits="userSpaceOnUse">
<stop stop-color="#24C0EB"/>
<stop offset="1" stop-color="#6BD369"/>
</linearGradient>
<linearGradient id="paint13_linear_602_4067" x1="40" y1="66.2012" x2="40" y2="53.5741" gradientUnits="userSpaceOnUse">
<stop stop-color="#24C0EB"/>
<stop offset="1" stop-color="#6BD369"/>
</linearGradient>
<linearGradient id="paint14_linear_602_4067" x1="59.5723" y1="78.8281" x2="59.5723" y2="66.2016" gradientUnits="userSpaceOnUse">
<stop stop-color="#24C0EB"/>
<stop offset="1" stop-color="#6BD369"/>
</linearGradient>
<linearGradient id="paint15_linear_602_4067" x1="59.5723" y1="66.2012" x2="59.5723" y2="53.5741" gradientUnits="userSpaceOnUse">
<stop stop-color="#24C0EB"/>
<stop offset="1" stop-color="#6BD369"/>
</linearGradient>
<linearGradient id="paint16_linear_602_4067" x1="20.4285" y1="78.8281" x2="20.4285" y2="66.2016" gradientUnits="userSpaceOnUse">
<stop stop-color="#24C0EB"/>
<stop offset="1" stop-color="#6BD369"/>
</linearGradient>
<linearGradient id="paint17_linear_602_4067" x1="20.4285" y1="66.2012" x2="20.4285" y2="53.5741" gradientUnits="userSpaceOnUse">
<stop stop-color="#24C0EB"/>
<stop offset="1" stop-color="#6BD369"/>
</linearGradient>
</defs>
</svg>
