<svg width="80" height="80" viewBox="0 0 80 80" fill="none" xmlns="http://www.w3.org/2000/svg">
<g clip-path="url(#clip0_602_4121)">
<path d="M40 78.8281C40 78.8281 68.3507 57.8733 68.3507 29.5225C68.3507 13.8648 55.6577 1.17188 40 1.17188C24.3424 1.17188 11.6494 13.8648 11.6494 29.5225C11.6494 57.8733 40 78.8281 40 78.8281Z" stroke="url(#paint0_linear_602_4121)" stroke-width="2.4" stroke-miterlimit="10" stroke-linecap="round" stroke-linejoin="round"/>
<path d="M44.9309 22.1267H35.0698C33.7082 22.1267 32.6045 23.2305 32.6045 24.592V34.4531C32.6045 35.8147 33.7082 36.9184 35.0698 36.9184H44.9309C46.2925 36.9184 47.3962 35.8147 47.3962 34.4531V24.592C47.3961 23.2305 46.2923 22.1267 44.9309 22.1267Z" stroke="url(#paint1_linear_602_4121)" stroke-width="2.4" stroke-miterlimit="10" stroke-linecap="round" stroke-linejoin="round"/>
<path d="M28.9062 24.592H32.6042" stroke="url(#paint2_linear_602_4121)" stroke-width="2.4" stroke-miterlimit="10" stroke-linecap="round" stroke-linejoin="round"/>
<path d="M26.4409 27.0573C27.8025 27.0573 28.9062 25.9536 28.9062 24.592C28.9062 23.2305 27.8025 22.1267 26.4409 22.1267C25.0793 22.1267 23.9756 23.2305 23.9756 24.592C23.9756 25.9536 25.0793 27.0573 26.4409 27.0573Z" stroke="url(#paint3_linear_602_4121)" stroke-width="2.4" stroke-miterlimit="10" stroke-linecap="round" stroke-linejoin="round"/>
<path d="M51.0935 24.592H47.3955" stroke="url(#paint4_linear_602_4121)" stroke-width="2.4" stroke-miterlimit="10" stroke-linecap="round" stroke-linejoin="round"/>
<path d="M53.5591 27.0573C54.9206 27.0573 56.0244 25.9536 56.0244 24.592C56.0244 23.2305 54.9206 22.1267 53.5591 22.1267C52.1975 22.1267 51.0938 23.2305 51.0938 24.592C51.0938 25.9536 52.1975 27.0573 53.5591 27.0573Z" stroke="url(#paint5_linear_602_4121)" stroke-width="2.4" stroke-miterlimit="10" stroke-linecap="round" stroke-linejoin="round"/>
<path d="M28.9062 34.4531H32.6042" stroke="url(#paint6_linear_602_4121)" stroke-width="2.4" stroke-miterlimit="10" stroke-linecap="round" stroke-linejoin="round"/>
<path d="M26.4409 36.9184C27.8025 36.9184 28.9062 35.8147 28.9062 34.4531C28.9062 33.0916 27.8025 31.9878 26.4409 31.9878C25.0793 31.9878 23.9756 33.0916 23.9756 34.4531C23.9756 35.8147 25.0793 36.9184 26.4409 36.9184Z" stroke="url(#paint7_linear_602_4121)" stroke-width="2.4" stroke-miterlimit="10" stroke-linecap="round" stroke-linejoin="round"/>
<path d="M51.0935 34.4531H47.3955" stroke="url(#paint8_linear_602_4121)" stroke-width="2.4" stroke-miterlimit="10" stroke-linecap="round" stroke-linejoin="round"/>
<path d="M53.5591 36.9184C54.9206 36.9184 56.0244 35.8147 56.0244 34.4531C56.0244 33.0916 54.9206 31.9878 53.5591 31.9878C52.1975 31.9878 51.0938 33.0916 51.0938 34.4531C51.0938 35.8147 52.1975 36.9184 53.5591 36.9184Z" stroke="url(#paint9_linear_602_4121)" stroke-width="2.4" stroke-miterlimit="10" stroke-linecap="round" stroke-linejoin="round"/>
<path d="M44.9307 18.429V22.1268" stroke="url(#paint10_linear_602_4121)" stroke-width="2.4" stroke-miterlimit="10" stroke-linecap="round" stroke-linejoin="round"/>
<path d="M44.9311 18.4289C46.2927 18.4289 47.3964 17.3252 47.3964 15.9636C47.3964 14.602 46.2927 13.4983 44.9311 13.4983C43.5696 13.4983 42.4658 14.602 42.4658 15.9636C42.4658 17.3252 43.5696 18.4289 44.9311 18.4289Z" stroke="url(#paint11_linear_602_4121)" stroke-width="2.4" stroke-miterlimit="10" stroke-linecap="round" stroke-linejoin="round"/>
<path d="M44.9307 40.6163V36.9185" stroke="url(#paint12_linear_602_4121)" stroke-width="2.4" stroke-miterlimit="10" stroke-linecap="round" stroke-linejoin="round"/>
<path d="M44.9311 45.5468C46.2927 45.5468 47.3964 44.4431 47.3964 43.0815C47.3964 41.72 46.2927 40.6162 44.9311 40.6162C43.5696 40.6162 42.4658 41.72 42.4658 43.0815C42.4658 44.4431 43.5696 45.5468 44.9311 45.5468Z" stroke="url(#paint13_linear_602_4121)" stroke-width="2.4" stroke-miterlimit="10" stroke-linecap="round" stroke-linejoin="round"/>
<path d="M35.0693 18.429V22.1268" stroke="url(#paint14_linear_602_4121)" stroke-width="2.4" stroke-miterlimit="10" stroke-linecap="round" stroke-linejoin="round"/>
<path d="M35.0698 18.4289C36.4314 18.4289 37.5351 17.3252 37.5351 15.9636C37.5351 14.602 36.4314 13.4983 35.0698 13.4983C33.7083 13.4983 32.6045 14.602 32.6045 15.9636C32.6045 17.3252 33.7083 18.4289 35.0698 18.4289Z" stroke="url(#paint15_linear_602_4121)" stroke-width="2.4" stroke-miterlimit="10" stroke-linecap="round" stroke-linejoin="round"/>
<path d="M35.0693 40.6163V36.9185" stroke="url(#paint16_linear_602_4121)" stroke-width="2.4" stroke-miterlimit="10" stroke-linecap="round" stroke-linejoin="round"/>
<path d="M35.0698 45.5468C36.4314 45.5468 37.5351 44.4431 37.5351 43.0815C37.5351 41.72 36.4314 40.6162 35.0698 40.6162C33.7083 40.6162 32.6045 41.72 32.6045 43.0815C32.6045 44.4431 33.7083 45.5468 35.0698 45.5468Z" stroke="url(#paint17_linear_602_4121)" stroke-width="2.4" stroke-miterlimit="10" stroke-linecap="round" stroke-linejoin="round"/>
<path d="M42.4658 27.0574H37.5352V31.988H42.4658V27.0574Z" stroke="url(#paint18_linear_602_4121)" stroke-width="2.4" stroke-miterlimit="10" stroke-linecap="round" stroke-linejoin="round"/>
<path d="M53.8394 12.1967C50.0437 9.16105 45.2381 7.33496 40 7.33496C27.7462 7.33496 17.8125 17.2686 17.8125 29.5225C17.8125 34.7606 19.6384 39.5662 22.6742 43.3618" stroke="url(#paint19_linear_602_4121)" stroke-width="2.4" stroke-miterlimit="10" stroke-linecap="round" stroke-linejoin="round"/>
<path d="M26.1611 46.8483C29.9568 49.884 34.7622 51.71 40.0005 51.71C52.2543 51.71 62.188 41.7762 62.188 29.5225C62.188 24.2844 60.3621 19.4787 57.3263 15.6831" stroke="url(#paint20_linear_602_4121)" stroke-width="2.4" stroke-miterlimit="10" stroke-linecap="round" stroke-linejoin="round"/>
</g>
<defs>
<linearGradient id="paint0_linear_602_4121" x1="40" y1="1.17187" x2="40" y2="78.8281" gradientUnits="userSpaceOnUse">
<stop stop-color="#24C0EB"/>
<stop offset="1" stop-color="#6BD369"/>
</linearGradient>
<linearGradient id="paint1_linear_602_4121" x1="40.0004" y1="22.1267" x2="40.0004" y2="36.9184" gradientUnits="userSpaceOnUse">
<stop stop-color="#24C0EB"/>
<stop offset="1" stop-color="#6BD369"/>
</linearGradient>
<linearGradient id="paint2_linear_602_4121" x1="30.7552" y1="24.592" x2="30.7552" y2="25.592" gradientUnits="userSpaceOnUse">
<stop stop-color="#24C0EB"/>
<stop offset="1" stop-color="#6BD369"/>
</linearGradient>
<linearGradient id="paint3_linear_602_4121" x1="26.4409" y1="22.1267" x2="26.4409" y2="27.0573" gradientUnits="userSpaceOnUse">
<stop stop-color="#24C0EB"/>
<stop offset="1" stop-color="#6BD369"/>
</linearGradient>
<linearGradient id="paint4_linear_602_4121" x1="49.2445" y1="24.592" x2="49.2445" y2="25.592" gradientUnits="userSpaceOnUse">
<stop stop-color="#24C0EB"/>
<stop offset="1" stop-color="#6BD369"/>
</linearGradient>
<linearGradient id="paint5_linear_602_4121" x1="53.5591" y1="22.1267" x2="53.5591" y2="27.0573" gradientUnits="userSpaceOnUse">
<stop stop-color="#24C0EB"/>
<stop offset="1" stop-color="#6BD369"/>
</linearGradient>
<linearGradient id="paint6_linear_602_4121" x1="30.7552" y1="34.4531" x2="30.7552" y2="35.4531" gradientUnits="userSpaceOnUse">
<stop stop-color="#24C0EB"/>
<stop offset="1" stop-color="#6BD369"/>
</linearGradient>
<linearGradient id="paint7_linear_602_4121" x1="26.4409" y1="31.9878" x2="26.4409" y2="36.9184" gradientUnits="userSpaceOnUse">
<stop stop-color="#24C0EB"/>
<stop offset="1" stop-color="#6BD369"/>
</linearGradient>
<linearGradient id="paint8_linear_602_4121" x1="49.2445" y1="34.4531" x2="49.2445" y2="35.4531" gradientUnits="userSpaceOnUse">
<stop stop-color="#24C0EB"/>
<stop offset="1" stop-color="#6BD369"/>
</linearGradient>
<linearGradient id="paint9_linear_602_4121" x1="53.5591" y1="31.9878" x2="53.5591" y2="36.9184" gradientUnits="userSpaceOnUse">
<stop stop-color="#24C0EB"/>
<stop offset="1" stop-color="#6BD369"/>
</linearGradient>
<linearGradient id="paint10_linear_602_4121" x1="45.4307" y1="18.429" x2="45.4307" y2="22.1268" gradientUnits="userSpaceOnUse">
<stop stop-color="#24C0EB"/>
<stop offset="1" stop-color="#6BD369"/>
</linearGradient>
<linearGradient id="paint11_linear_602_4121" x1="44.9311" y1="13.4983" x2="44.9311" y2="18.4289" gradientUnits="userSpaceOnUse">
<stop stop-color="#24C0EB"/>
<stop offset="1" stop-color="#6BD369"/>
</linearGradient>
<linearGradient id="paint12_linear_602_4121" x1="45.4307" y1="36.9185" x2="45.4307" y2="40.6163" gradientUnits="userSpaceOnUse">
<stop stop-color="#24C0EB"/>
<stop offset="1" stop-color="#6BD369"/>
</linearGradient>
<linearGradient id="paint13_linear_602_4121" x1="44.9311" y1="40.6162" x2="44.9311" y2="45.5468" gradientUnits="userSpaceOnUse">
<stop stop-color="#24C0EB"/>
<stop offset="1" stop-color="#6BD369"/>
</linearGradient>
<linearGradient id="paint14_linear_602_4121" x1="35.5693" y1="18.429" x2="35.5693" y2="22.1268" gradientUnits="userSpaceOnUse">
<stop stop-color="#24C0EB"/>
<stop offset="1" stop-color="#6BD369"/>
</linearGradient>
<linearGradient id="paint15_linear_602_4121" x1="35.0698" y1="13.4983" x2="35.0698" y2="18.4289" gradientUnits="userSpaceOnUse">
<stop stop-color="#24C0EB"/>
<stop offset="1" stop-color="#6BD369"/>
</linearGradient>
<linearGradient id="paint16_linear_602_4121" x1="35.5693" y1="36.9185" x2="35.5693" y2="40.6163" gradientUnits="userSpaceOnUse">
<stop stop-color="#24C0EB"/>
<stop offset="1" stop-color="#6BD369"/>
</linearGradient>
<linearGradient id="paint17_linear_602_4121" x1="35.0698" y1="40.6162" x2="35.0698" y2="45.5468" gradientUnits="userSpaceOnUse">
<stop stop-color="#24C0EB"/>
<stop offset="1" stop-color="#6BD369"/>
</linearGradient>
<linearGradient id="paint18_linear_602_4121" x1="40.0005" y1="27.0574" x2="40.0005" y2="31.988" gradientUnits="userSpaceOnUse">
<stop stop-color="#24C0EB"/>
<stop offset="1" stop-color="#6BD369"/>
</linearGradient>
<linearGradient id="paint19_linear_602_4121" x1="35.8259" y1="7.33496" x2="35.8259" y2="43.3618" gradientUnits="userSpaceOnUse">
<stop stop-color="#24C0EB"/>
<stop offset="1" stop-color="#6BD369"/>
</linearGradient>
<linearGradient id="paint20_linear_602_4121" x1="44.1746" y1="15.6831" x2="44.1746" y2="51.71" gradientUnits="userSpaceOnUse">
<stop stop-color="#24C0EB"/>
<stop offset="1" stop-color="#6BD369"/>
</linearGradient>
<clipPath id="clip0_602_4121">
<rect width="80" height="80" fill="white"/>
</clipPath>
</defs>
</svg>
