<svg width="80" height="80" viewBox="0 0 80 80" fill="none" xmlns="http://www.w3.org/2000/svg">
<mask id="mask0_602_4168" style="mask-type:luminance" maskUnits="userSpaceOnUse" x="0" y="0" width="80" height="80">
<path d="M0 7.62939e-06H80V80H0V7.62939e-06Z" fill="white"/>
</mask>
<g mask="url(#mask0_602_4168)">
<path d="M55.7461 2.91268L56.8281 1.8308C57.7062 0.952676 59.13 0.952676 60.0083 1.8308C62.1609 3.98346 62.1609 7.47361 60.0083 9.62627L56.3683 13.2661" stroke="url(#paint0_linear_602_4168)" stroke-width="2.4" stroke-miterlimit="10" stroke-linecap="round" stroke-linejoin="round"/>
<path d="M51.0879 7.61466V11.7317" stroke="url(#paint1_linear_602_4168)" stroke-width="2.4" stroke-miterlimit="10" stroke-linecap="round" stroke-linejoin="round"/>
<path d="M46.5068 11.6162V7.76559" stroke="url(#paint2_linear_602_4168)" stroke-width="2.4" stroke-miterlimit="10" stroke-linecap="round" stroke-linejoin="round"/>
<path d="M68.4585 37.1701C66.2436 46.0913 58.1818 52.7034 48.5754 52.7034C45.4527 52.7034 42.4932 52.0048 39.8447 50.7552" stroke="url(#paint3_linear_602_4168)" stroke-width="2.4" stroke-miterlimit="10" stroke-linecap="round" stroke-linejoin="round"/>
<path d="M41.4102 13.0201C43.6406 12.1871 46.0553 11.7318 48.5762 11.7318C52.6955 11.7318 56.5306 12.9476 59.7427 15.0398" stroke="url(#paint4_linear_602_4168)" stroke-width="2.4" stroke-miterlimit="10" stroke-linecap="round" stroke-linejoin="round"/>
<path d="M58.2168 18.7837C56.2085 17.3403 53.8637 16.3359 51.3223 15.9109" stroke="url(#paint5_linear_602_4168)" stroke-width="2.4" stroke-miterlimit="10" stroke-linecap="round" stroke-linejoin="round"/>
<path d="M40.5254 46.6637C42.9077 47.9942 45.6532 48.7524 48.5757 48.7524C55.3777 48.7524 61.2204 44.6453 63.7591 38.7757" stroke="url(#paint6_linear_602_4168)" stroke-width="2.4" stroke-miterlimit="10" stroke-linecap="round" stroke-linejoin="round"/>
<path d="M45.5371 15.9622C44.2579 16.1999 43.0305 16.5847 41.873 17.0986" stroke="url(#paint7_linear_602_4168)" stroke-width="2.4" stroke-miterlimit="10" stroke-linecap="round" stroke-linejoin="round"/>
<path d="M38.543 53.7931L39.9734 48.4767C40.8059 45.4109 40.6239 42.7064 39.9158 40.3901" stroke="url(#paint8_linear_602_4168)" stroke-width="2.4" stroke-miterlimit="10" stroke-linecap="round" stroke-linejoin="round"/>
<path d="M22.1332 38.8341L23.0811 45.4147L17.8584 52.3403" stroke="url(#paint9_linear_602_4168)" stroke-width="2.4" stroke-miterlimit="10" stroke-linecap="round" stroke-linejoin="round"/>
<path d="M37.2103 35.2717C34.8976 32.2867 32.2245 30.7039 32.2245 30.7039L34.2825 23.4527L38.2245 21.6169C40.9009 20.3706 42.3561 17.4359 41.7279 14.5513L41.3737 12.9236C41.2006 12.1289 40.3832 11.6541 39.6073 11.8972L29.7453 14.988C29.0939 15.192 28.5262 15.6016 28.127 16.1552L21.1547 25.8241C20.6756 26.4883 20.4731 27.3125 20.59 28.1231L21.3126 33.1406" stroke="url(#paint10_linear_602_4168)" stroke-width="2.4" stroke-miterlimit="10" stroke-linecap="round" stroke-linejoin="round"/>
<path d="M59.3078 20.8602C57.9104 19.4629 57.9104 17.1972 59.3078 15.7999L60.6162 14.4914C61.6995 13.4082 63.4556 13.4082 64.5389 14.4914L65.6767 15.6293C66.7598 16.7124 66.7598 18.4686 65.6767 19.5518L64.3682 20.8602C62.9707 22.2575 60.7051 22.2575 59.3078 20.8602Z" stroke="url(#paint11_linear_602_4168)" stroke-width="2.4" stroke-miterlimit="10" stroke-linecap="round" stroke-linejoin="round"/>
<path d="M59.8051 30.4842C58.4077 29.0869 58.4077 26.8213 59.8051 25.4238L63.4387 21.7902C64.5218 20.707 66.2781 20.707 67.3612 21.7902L68.4991 22.9281C69.5823 24.0113 69.5823 25.7675 68.4991 26.8506L64.8656 30.4842C63.4681 31.8816 61.2024 31.8816 59.8051 30.4842Z" stroke="url(#paint12_linear_602_4168)" stroke-width="2.4" stroke-miterlimit="10" stroke-linecap="round" stroke-linejoin="round"/>
<path d="M62.6271 37.783C61.2298 36.3857 61.2298 34.1201 62.6271 32.7227L66.2607 29.089C67.3438 28.0059 69.1001 28.0059 70.1832 29.089L71.3212 30.227C72.4043 31.3101 72.4043 33.0663 71.3212 34.1495L67.6876 37.783C66.2901 39.1804 64.0245 39.1804 62.6271 37.783Z" stroke="url(#paint13_linear_602_4168)" stroke-width="2.4" stroke-miterlimit="10" stroke-linecap="round" stroke-linejoin="round"/>
<path d="M54.1659 7.48438H42.9864C42.1137 7.48438 41.4062 6.77688 41.4062 5.90422V3.48391C41.4062 2.61125 42.1137 1.90375 42.9864 1.90375H54.1659C55.0386 1.90375 55.7459 2.61125 55.7459 3.48391V5.90422C55.7459 6.77688 55.0386 7.48438 54.1659 7.48438Z" stroke="url(#paint14_linear_602_4168)" stroke-width="2.4" stroke-miterlimit="10" stroke-linecap="round" stroke-linejoin="round"/>
<path d="M25.4658 78.8281L42.5789 56.3752L42.9032 56.4241C46.4077 56.9527 49.9197 55.5167 52.0502 52.6844L52.2916 52.3633" stroke="url(#paint15_linear_602_4168)" stroke-width="2.4" stroke-miterlimit="10" stroke-linecap="round" stroke-linejoin="round"/>
<path d="M20.7761 48.4706L7.86621 65.5898" stroke="url(#paint16_linear_602_4168)" stroke-width="2.4" stroke-miterlimit="10" stroke-linecap="round" stroke-linejoin="round"/>
<path d="M50.7301 30.9255C51.4435 32.1153 51.0576 33.6583 49.8676 34.3719C48.6779 35.0855 47.135 34.6992 46.4214 33.5095C45.7078 32.3197 46.0939 30.7767 47.2837 30.0631C48.4735 29.3495 50.0165 29.7356 50.7301 30.9255Z" stroke="url(#paint17_linear_602_4168)" stroke-width="2.4" stroke-miterlimit="10" stroke-linecap="round" stroke-linejoin="round"/>
<path d="M49.8682 34.3719L55.0024 42.9329" stroke="url(#paint18_linear_602_4168)" stroke-width="2.4" stroke-miterlimit="10" stroke-linecap="round" stroke-linejoin="round"/>
<path d="M52.2141 22.7838C52.2141 24.7929 50.5854 26.4216 48.5763 26.4216C46.5671 26.4216 44.9385 24.7929 44.9385 22.7838C44.9385 20.7748 46.5671 19.146 48.5763 19.146C50.5854 19.146 52.2141 20.7748 52.2141 22.7838Z" stroke="url(#paint19_linear_602_4168)" stroke-width="2.4" stroke-miterlimit="10" stroke-linecap="round" stroke-linejoin="round"/>
<path d="M48.5762 22.7839L50.8966 20.4635" stroke="url(#paint20_linear_602_4168)" stroke-width="2.4" stroke-miterlimit="10" stroke-linecap="round" stroke-linejoin="round"/>
<path d="M34.2827 23.4526L32.04 22.1367" stroke="url(#paint21_linear_602_4168)" stroke-width="2.4" stroke-miterlimit="10" stroke-linecap="round" stroke-linejoin="round"/>
<path d="M32.2249 30.7039H28.3838" stroke="url(#paint22_linear_602_4168)" stroke-width="2.4" stroke-miterlimit="10" stroke-linecap="round" stroke-linejoin="round"/>
</g>
<defs>
<linearGradient id="paint0_linear_602_4168" x1="58.6844" y1="13.2661" x2="58.6844" y2="1.17221" gradientUnits="userSpaceOnUse">
<stop stop-color="#24C0EB"/>
<stop offset="1" stop-color="#6BD369"/>
</linearGradient>
<linearGradient id="paint1_linear_602_4168" x1="51.5879" y1="11.7317" x2="51.5879" y2="7.61466" gradientUnits="userSpaceOnUse">
<stop stop-color="#24C0EB"/>
<stop offset="1" stop-color="#6BD369"/>
</linearGradient>
<linearGradient id="paint2_linear_602_4168" x1="47.0068" y1="11.6162" x2="47.0068" y2="7.76559" gradientUnits="userSpaceOnUse">
<stop stop-color="#24C0EB"/>
<stop offset="1" stop-color="#6BD369"/>
</linearGradient>
<linearGradient id="paint3_linear_602_4168" x1="54.1516" y1="52.7034" x2="54.1516" y2="37.1701" gradientUnits="userSpaceOnUse">
<stop stop-color="#24C0EB"/>
<stop offset="1" stop-color="#6BD369"/>
</linearGradient>
<linearGradient id="paint4_linear_602_4168" x1="50.5764" y1="15.0398" x2="50.5764" y2="11.7318" gradientUnits="userSpaceOnUse">
<stop stop-color="#24C0EB"/>
<stop offset="1" stop-color="#6BD369"/>
</linearGradient>
<linearGradient id="paint5_linear_602_4168" x1="54.7695" y1="18.7837" x2="54.7695" y2="15.9109" gradientUnits="userSpaceOnUse">
<stop stop-color="#24C0EB"/>
<stop offset="1" stop-color="#6BD369"/>
</linearGradient>
<linearGradient id="paint6_linear_602_4168" x1="52.1423" y1="48.7524" x2="52.1423" y2="38.7757" gradientUnits="userSpaceOnUse">
<stop stop-color="#24C0EB"/>
<stop offset="1" stop-color="#6BD369"/>
</linearGradient>
<linearGradient id="paint7_linear_602_4168" x1="43.7051" y1="17.0986" x2="43.7051" y2="15.9622" gradientUnits="userSpaceOnUse">
<stop stop-color="#24C0EB"/>
<stop offset="1" stop-color="#6BD369"/>
</linearGradient>
<linearGradient id="paint8_linear_602_4168" x1="39.5344" y1="53.7931" x2="39.5344" y2="40.3901" gradientUnits="userSpaceOnUse">
<stop stop-color="#24C0EB"/>
<stop offset="1" stop-color="#6BD369"/>
</linearGradient>
<linearGradient id="paint9_linear_602_4168" x1="20.4697" y1="52.3403" x2="20.4697" y2="38.8341" gradientUnits="userSpaceOnUse">
<stop stop-color="#24C0EB"/>
<stop offset="1" stop-color="#6BD369"/>
</linearGradient>
<linearGradient id="paint10_linear_602_4168" x1="31.2153" y1="35.2717" x2="31.2153" y2="11.8334" gradientUnits="userSpaceOnUse">
<stop stop-color="#24C0EB"/>
<stop offset="1" stop-color="#6BD369"/>
</linearGradient>
<linearGradient id="paint11_linear_602_4168" x1="62.3744" y1="21.9082" x2="62.3744" y2="13.679" gradientUnits="userSpaceOnUse">
<stop stop-color="#24C0EB"/>
<stop offset="1" stop-color="#6BD369"/>
</linearGradient>
<linearGradient id="paint12_linear_602_4168" x1="64.0343" y1="31.5322" x2="64.0343" y2="20.9778" gradientUnits="userSpaceOnUse">
<stop stop-color="#24C0EB"/>
<stop offset="1" stop-color="#6BD369"/>
</linearGradient>
<linearGradient id="paint13_linear_602_4168" x1="66.8563" y1="38.8311" x2="66.8563" y2="28.2766" gradientUnits="userSpaceOnUse">
<stop stop-color="#24C0EB"/>
<stop offset="1" stop-color="#6BD369"/>
</linearGradient>
<linearGradient id="paint14_linear_602_4168" x1="48.5761" y1="7.48438" x2="48.5761" y2="1.90375" gradientUnits="userSpaceOnUse">
<stop stop-color="#24C0EB"/>
<stop offset="1" stop-color="#6BD369"/>
</linearGradient>
<linearGradient id="paint15_linear_602_4168" x1="38.8787" y1="78.8281" x2="38.8787" y2="52.3633" gradientUnits="userSpaceOnUse">
<stop stop-color="#24C0EB"/>
<stop offset="1" stop-color="#6BD369"/>
</linearGradient>
<linearGradient id="paint16_linear_602_4168" x1="14.3211" y1="65.5898" x2="14.3211" y2="48.4706" gradientUnits="userSpaceOnUse">
<stop stop-color="#24C0EB"/>
<stop offset="1" stop-color="#6BD369"/>
</linearGradient>
<linearGradient id="paint17_linear_602_4168" x1="48.5757" y1="34.73" x2="48.5757" y2="29.705" gradientUnits="userSpaceOnUse">
<stop stop-color="#24C0EB"/>
<stop offset="1" stop-color="#6BD369"/>
</linearGradient>
<linearGradient id="paint18_linear_602_4168" x1="52.4353" y1="42.9329" x2="52.4353" y2="34.3719" gradientUnits="userSpaceOnUse">
<stop stop-color="#24C0EB"/>
<stop offset="1" stop-color="#6BD369"/>
</linearGradient>
<linearGradient id="paint19_linear_602_4168" x1="48.5763" y1="26.4216" x2="48.5763" y2="19.146" gradientUnits="userSpaceOnUse">
<stop stop-color="#24C0EB"/>
<stop offset="1" stop-color="#6BD369"/>
</linearGradient>
<linearGradient id="paint20_linear_602_4168" x1="49.7364" y1="22.7839" x2="49.7364" y2="20.4635" gradientUnits="userSpaceOnUse">
<stop stop-color="#24C0EB"/>
<stop offset="1" stop-color="#6BD369"/>
</linearGradient>
<linearGradient id="paint21_linear_602_4168" x1="33.1614" y1="23.4526" x2="33.1614" y2="22.1367" gradientUnits="userSpaceOnUse">
<stop stop-color="#24C0EB"/>
<stop offset="1" stop-color="#6BD369"/>
</linearGradient>
<linearGradient id="paint22_linear_602_4168" x1="30.3043" y1="30.7039" x2="30.3043" y2="29.7039" gradientUnits="userSpaceOnUse">
<stop stop-color="#24C0EB"/>
<stop offset="1" stop-color="#6BD369"/>
</linearGradient>
</defs>
</svg>
