<svg width="487" height="218" viewBox="0 0 487 218" fill="none" xmlns="http://www.w3.org/2000/svg">
<path d="M150.726 72.3636L103.715 72.3636L87.2615 55.9769L22.7895 55.977L22.7895 70.416L-96.0137 70.416L-96.0137 69.0728L21.4463 69.0728L21.4463 54.6338L87.8659 54.6338L104.32 71.0876L150.793 71.0876C151.062 70.013 152.069 69.2072 153.278 69.2072C154.688 69.2071 155.83 70.3488 155.83 71.7592C155.83 73.1695 154.688 74.3112 153.278 74.3112C152.002 74.244 150.995 73.5053 150.726 72.3636Z" fill="white"/>
<path d="M139.242 78.005L100.895 78.005L84.4412 61.5512L28.2968 61.5512L28.2968 75.9902L-98.834 75.9902L-98.834 74.6471L26.9537 74.647L26.9537 60.208L85.0457 60.208L101.499 76.6618L139.242 76.6618C139.578 75.5873 140.518 74.7814 141.727 74.7814C143.138 74.7814 144.279 75.9231 144.279 77.3334C144.279 78.7437 143.138 79.8854 141.727 79.8854C140.518 79.8854 139.511 79.0795 139.242 78.005Z" fill="white"/>
<path d="M136.959 84.2511L98.6118 84.2511L82.158 67.7973L34.7442 67.7973L34.7442 82.2363L-101.117 82.2363L-101.117 80.8931L33.4682 80.8931L33.4682 66.4541L82.7624 66.4541L99.2162 82.9079L136.959 82.9079C137.228 81.8334 138.235 81.0275 139.444 81.0275C140.854 81.0275 141.996 82.1691 141.996 83.5795C141.996 84.9898 140.854 86.1315 139.444 86.1315C138.235 86.1315 137.228 85.3256 136.959 84.2511Z" fill="white"/>
<path d="M-25.9 65.8494L-25.9 57.6561L-2.79755 57.6561C-2.46176 56.5815 -1.52153 55.7756 -0.312683 55.7756C1.09764 55.7756 2.23932 56.9173 2.23932 58.3276C2.23932 59.738 1.09764 60.8797 -0.312683 60.8797C-1.52153 60.8797 -2.46176 60.0738 -2.79755 58.9992L-24.4897 58.9992L-24.4897 64.439L13.2533 64.439L13.2533 51.3432L-35.1679 51.3432L-35.1679 65.7822L-151.15 65.7822L-151.15 64.439L-36.5111 64.439L-36.5111 50L14.6636 50L14.6636 65.8494L-25.9 65.8494Z" fill="white"/>
<path d="M191.289 147.917L144.279 147.917L127.825 131.463L109.692 131.463L63.2856 131.463L63.2856 145.902L-55.5176 145.902L-55.5176 144.559L61.9424 144.559L61.9424 130.12L109.692 130.12L128.362 130.12L153.949 130.12C154.218 129.046 155.225 128.24 156.434 128.24C157.845 128.24 158.986 129.381 158.986 130.792C158.986 132.202 157.845 133.344 156.434 133.344C155.225 133.344 154.285 132.538 153.949 131.463L129.705 131.463L133.936 135.694L175.574 135.694C175.843 134.62 176.85 133.814 178.059 133.814C179.47 133.814 180.611 134.956 180.611 136.366C180.611 137.776 179.47 138.918 178.059 138.918C176.85 138.918 175.91 138.112 175.574 137.038L135.346 137.038L144.816 146.507L191.289 146.507C191.558 145.432 192.565 144.626 193.774 144.626C195.185 144.626 196.326 145.768 196.326 147.178C196.326 148.589 195.185 149.73 193.774 149.73C192.565 149.865 191.558 149.059 191.289 147.917Z" fill="white"/>
<path d="M179.739 153.558L141.391 153.558L124.937 137.104L68.7929 137.104L68.7929 151.543L-58.3379 151.543L-58.3379 150.2L67.4497 150.2L67.4497 135.761L125.542 135.761L141.996 152.215L179.739 152.215C180.074 151.14 181.015 150.335 182.223 150.335C183.634 150.335 184.775 151.476 184.775 152.887C184.775 154.297 183.634 155.439 182.223 155.439C181.015 155.439 180.074 154.633 179.739 153.558Z" fill="white"/>
<path d="M177.455 159.804L139.108 159.804L122.654 143.35L75.3074 143.35L75.3075 157.79L-60.6211 157.79L-60.6211 156.446L73.9643 156.446L73.9643 142.007L123.259 142.007L139.712 158.461L177.455 158.461C177.791 157.387 178.731 156.581 179.94 156.581C181.351 156.581 182.492 157.722 182.492 159.133C182.492 160.543 181.351 161.685 179.94 161.685C178.731 161.685 177.791 160.879 177.455 159.804Z" fill="white"/>
<path d="M60.2634 103.458L60.2634 78.5422C59.1888 78.2064 58.3829 77.2662 58.3829 76.0574C58.3829 74.647 59.5246 73.5054 60.935 73.5054C62.3453 73.5054 63.487 74.647 63.487 76.0574C63.487 77.2662 62.6811 78.2064 61.6066 78.5422L61.6066 104.801L37.7653 104.801L21.3787 88.4145L-43.0933 88.4145L-43.0933 102.854L-161.896 102.854L-161.896 101.51L-44.4365 101.51L-44.4365 87.0714L21.9831 87.0714L38.4369 103.525L60.2634 103.525L60.2634 103.458Z" fill="white"/>
<path d="M-37.586 93.9884L-37.586 108.427L-164.717 108.427L-164.717 107.084L-38.9292 107.084L-38.9292 92.6452L19.1628 92.6452L35.6166 109.099L68.2556 109.099L68.2556 88.6829C67.1811 88.3471 66.3752 87.4068 66.3752 86.198C66.3752 84.7877 67.5169 83.646 68.9272 83.646C70.3375 83.646 71.4792 84.7877 71.4792 86.198C71.4792 87.4068 70.6733 88.3471 69.5988 88.6829L69.5988 110.509L35.0122 110.509L18.5584 94.0555L-37.586 94.0555L-37.586 93.9884Z" fill="white"/>
<path d="M93.373 116.688L32.729 116.688L16.2752 100.234L-31.1386 100.234L-31.1386 114.673L-167 114.673L-167 113.33L-32.4147 113.33L-32.4147 98.8911L16.8796 98.8911L33.3334 115.345L93.373 115.345C93.6416 114.27 94.649 113.464 95.8578 113.464C97.2681 113.464 98.4099 114.606 98.4099 116.016C98.4099 117.427 97.2681 118.569 95.8578 118.569C94.649 118.569 93.6416 117.763 93.373 116.688Z" fill="white"/>
<path d="M4.79034 107.085C5.12614 106.01 6.06635 105.204 7.27519 105.204C8.68552 105.204 9.82722 106.346 9.82722 107.756C9.82722 109.166 8.68552 110.308 7.27519 110.308C6.06635 110.308 5.12614 109.502 4.79034 108.428L-23.8863 108.428L-23.8863 122.867L-142.689 122.867L-142.689 121.524L-25.2295 121.524L-25.2295 107.085L4.79034 107.085Z" fill="white"/>
<path d="M13.3869 112.659C13.6556 111.584 14.663 110.778 15.8718 110.778C17.2821 110.778 18.4238 111.92 18.4238 113.33C18.4238 114.741 17.2821 115.882 15.8718 115.882C14.663 115.882 13.7227 115.076 13.3869 114.002L-18.3118 114.002L-18.3118 128.441L-145.51 128.441L-145.51 127.098L-19.7221 127.098L-19.7221 112.659L13.3869 112.659Z" fill="white"/>
<path d="M19.5657 120.315L-11.8645 120.315L-11.8645 134.754L-147.793 134.754L-147.793 133.411L-13.2076 133.411L-13.2076 118.972L19.5657 118.972C19.8343 117.897 20.8417 117.091 22.0505 117.091C23.4608 117.091 24.6026 118.233 24.6026 119.643C24.6026 121.054 23.4608 122.195 22.0505 122.195C20.8417 122.195 19.8343 121.389 19.5657 120.315Z" fill="white"/>
<path d="M14.6644 141.403L14.6644 133.209L37.7669 133.209C38.0355 132.135 39.0429 131.329 40.2518 131.329C41.6621 131.329 42.8038 132.471 42.8038 133.881C42.8038 135.291 41.6621 136.433 40.2518 136.433C39.0429 136.433 38.1027 135.627 37.7669 134.552L16.0748 134.552L16.0748 139.992L53.8178 139.992L53.8178 126.896L5.39658 126.896L5.39658 141.335L-110.586 141.335L-110.586 139.992L3.98624 139.992L3.98624 125.553L55.1609 125.553L55.1609 141.403L14.6644 141.403Z" fill="white"/>
<path opacity="0.5" d="M75.32 162V49.2H117.24C136.12 49.2 150.68 54.0533 160.92 63.76C171.267 73.4667 176.44 87.3867 176.44 105.52C176.44 123.547 171.267 137.467 160.92 147.28C150.68 157.093 136.12 162 117.24 162H75.32ZM95.8 145.04H115.96C141.987 145.04 155 131.867 155 105.52C155 79.28 141.987 66.16 115.96 66.16H95.8V145.04ZM193.995 66.96V47.44H216.395V66.96H193.995ZM195.275 162V83.76H215.275V162H195.275ZM236.056 190.8V83.76H255.576V96.24C257.816 91.9733 261.176 88.56 265.656 86C270.243 83.44 275.416 82.16 281.176 82.16C288.003 82.16 293.976 83.8133 299.096 87.12C304.323 90.4267 308.376 95.12 311.256 101.2C314.136 107.173 315.576 114.373 315.576 122.8C315.576 131.12 314.136 138.373 311.256 144.56C308.376 150.64 304.376 155.333 299.256 158.64C294.136 161.947 288.11 163.6 281.176 163.6C275.63 163.6 270.616 162.427 266.136 160.08C261.763 157.627 258.403 154.373 256.056 150.32V190.8H236.056ZM275.576 148.4C281.55 148.4 286.35 146.267 289.976 142C293.603 137.627 295.416 131.227 295.416 122.8C295.416 114.267 293.603 107.92 289.976 103.76C286.35 99.4933 281.55 97.36 275.576 97.36C269.603 97.36 264.803 99.4933 261.176 103.76C257.55 107.92 255.736 114.267 255.736 122.8C255.736 131.227 257.55 137.627 261.176 142C264.803 146.267 269.603 148.4 275.576 148.4ZM360.634 163.6C354.02 163.6 347.834 162.8 342.074 161.2C336.314 159.6 331.514 157.307 327.674 154.32L332.794 141.2C336.74 143.867 341.167 145.947 346.074 147.44C350.98 148.827 355.887 149.52 360.794 149.52C365.914 149.52 369.7 148.667 372.154 146.96C374.714 145.147 375.994 142.8 375.994 139.92C375.994 135.44 372.687 132.56 366.074 131.28L350.074 128.24C336.527 125.68 329.754 118.64 329.754 107.12C329.754 102 331.14 97.5733 333.914 93.84C336.794 90.1067 340.74 87.2267 345.754 85.2C350.767 83.1733 356.527 82.16 363.034 82.16C368.58 82.16 373.914 82.96 379.034 84.56C384.154 86.0533 388.527 88.3467 392.154 91.44L386.714 104.56C383.62 102 379.887 99.9733 375.514 98.48C371.247 96.9867 367.14 96.24 363.194 96.24C357.967 96.24 354.074 97.1467 351.514 98.96C349.06 100.773 347.834 103.173 347.834 106.16C347.834 110.853 350.874 113.733 356.954 114.8L372.954 117.84C379.887 119.12 385.114 121.467 388.634 124.88C392.26 128.293 394.074 132.88 394.074 138.64C394.074 146.427 391.034 152.56 384.954 157.04C378.874 161.413 370.767 163.6 360.634 163.6ZM448.679 163.6C439.825 163.6 432.199 161.947 425.799 158.64C419.399 155.333 414.439 150.64 410.919 144.56C407.505 138.48 405.799 131.28 405.799 122.96C405.799 114.853 407.452 107.76 410.759 101.68C414.172 95.6 418.812 90.8533 424.679 87.44C430.652 83.92 437.425 82.16 444.999 82.16C456.092 82.16 464.839 85.68 471.239 92.72C477.745 99.76 480.999 109.36 480.999 121.52V127.44H424.999C426.492 141.413 434.492 148.4 448.999 148.4C453.372 148.4 457.745 147.76 462.119 146.48C466.492 145.093 470.492 142.96 474.119 140.08L479.719 153.52C475.985 156.613 471.292 159.067 465.639 160.88C459.985 162.693 454.332 163.6 448.679 163.6ZM445.799 95.76C439.932 95.76 435.185 97.5733 431.559 101.2C427.932 104.827 425.745 109.733 424.999 115.92H464.359C463.932 109.413 462.119 104.453 458.919 101.04C455.825 97.52 451.452 95.76 445.799 95.76Z" fill="white"/>
</svg>
