<svg width="80" height="80" viewBox="0 0 80 80" fill="none" xmlns="http://www.w3.org/2000/svg">
<g clip-path="url(#clip0_602_4146)">
<path d="M27.9158 15.1719H22.6211V22.3152H27.9158V15.1719Z" stroke="url(#paint0_linear_602_4146)" stroke-width="2.4" stroke-miterlimit="10" stroke-linecap="round" stroke-linejoin="round"/>
<path d="M57.4873 41.8105H65.8939" stroke="url(#paint1_linear_602_4146)" stroke-width="2.4" stroke-miterlimit="10" stroke-linecap="round" stroke-linejoin="round"/>
<path d="M57.4873 46.4888H65.8939" stroke="url(#paint2_linear_602_4146)" stroke-width="2.4" stroke-miterlimit="10" stroke-linecap="round" stroke-linejoin="round"/>
<path d="M57.4873 28.6757H65.8939" stroke="url(#paint3_linear_602_4146)" stroke-width="2.4" stroke-miterlimit="10" stroke-linecap="round" stroke-linejoin="round"/>
<path d="M57.4873 33.3494H65.8939" stroke="url(#paint4_linear_602_4146)" stroke-width="2.4" stroke-miterlimit="10" stroke-linecap="round" stroke-linejoin="round"/>
<path d="M57.4873 16.2244H65.8939" stroke="url(#paint5_linear_602_4146)" stroke-width="2.4" stroke-miterlimit="10" stroke-linecap="round" stroke-linejoin="round"/>
<path d="M57.4873 20.8982H65.8939" stroke="url(#paint6_linear_602_4146)" stroke-width="2.4" stroke-miterlimit="10" stroke-linecap="round" stroke-linejoin="round"/>
<path d="M15.1117 15.172H35.4289C35.9836 15.172 36.4391 15.6264 36.4391 16.1797V34.4786C36.4391 35.0318 35.9836 35.4862 35.4289 35.4862H15.1117C14.557 35.4862 14.1016 35.0318 14.1016 34.4786V16.1795C14.1016 15.6262 14.557 15.172 15.1117 15.172Z" stroke="url(#paint7_linear_602_4146)" stroke-width="2.4" stroke-miterlimit="10" stroke-linecap="round" stroke-linejoin="round"/>
<path d="M35.7806 40.7894H14.76C14.3947 40.7894 14.1016 41.1133 14.1016 41.5046V46.4302C14.1016 46.826 14.3947 47.1499 14.76 47.1499H35.7808C36.1416 47.1499 36.4392 46.826 36.4392 46.4302V41.5047C36.4391 41.1133 36.1414 40.7894 35.7806 40.7894Z" stroke="url(#paint8_linear_602_4146)" stroke-width="2.4" stroke-miterlimit="10" stroke-linecap="round" stroke-linejoin="round"/>
<path d="M45.0358 27.6229H50.2086C50.5469 27.6229 50.8264 27.8973 50.8264 28.2392V33.3987C50.8264 33.7406 50.5467 34.015 50.2086 34.015H45.0358C44.693 34.015 44.418 33.7406 44.418 33.3987V28.2392C44.418 27.8975 44.693 27.6229 45.0358 27.6229Z" stroke="url(#paint9_linear_602_4146)" stroke-width="2.4" stroke-miterlimit="10" stroke-linecap="round" stroke-linejoin="round"/>
<path d="M45.0358 40.7579H50.2086C50.5469 40.7579 50.8264 41.0368 50.8264 41.3742V46.5337C50.8264 46.8756 50.5467 47.15 50.2086 47.15H45.0358C44.693 47.15 44.418 46.8756 44.418 46.5337V41.3742C44.418 41.0368 44.693 40.7579 45.0358 40.7579Z" stroke="url(#paint10_linear_602_4146)" stroke-width="2.4" stroke-miterlimit="10" stroke-linecap="round" stroke-linejoin="round"/>
<path d="M45.0358 15.172H50.2086C50.5469 15.172 50.8264 15.4464 50.8264 15.7882V20.9478C50.8264 21.2851 50.5467 21.564 50.2086 21.564H45.0358C44.693 21.564 44.418 21.2851 44.418 20.9478V15.7882C44.418 15.4464 44.693 15.172 45.0358 15.172Z" stroke="url(#paint11_linear_602_4146)" stroke-width="2.4" stroke-miterlimit="10" stroke-linecap="round" stroke-linejoin="round"/>
<path d="M49.9016 59.1783L51.4666 69.9202M28.5291 69.9202L30.0941 59.1783" stroke="url(#paint12_linear_602_4146)" stroke-width="2.4" stroke-miterlimit="10" stroke-linecap="round" stroke-linejoin="round"/>
<path d="M39.3441 63.9196H40.6519C42.307 63.9196 43.66 65.2691 43.66 66.9199V69.9202H36.3359V66.9199C36.3359 65.2689 37.6889 63.9196 39.3441 63.9196Z" stroke="url(#paint13_linear_602_4146)" stroke-width="2.4" stroke-miterlimit="10" stroke-linecap="round" stroke-linejoin="round"/>
<path d="M42.6947 8.62231H72.4872C73.0013 8.62231 73.4253 9.04513 73.4253 9.55794V53.1056C73.4253 53.6229 73.0014 54.0412 72.4872 54.0412H43.1141M37.603 54.0412H7.51281C6.99422 54.0412 6.57031 53.6229 6.57031 53.1056V9.55794C6.57031 9.04513 6.99422 8.62231 7.51281 8.62231H37.1881" stroke="url(#paint14_linear_602_4146)" stroke-width="2.4" stroke-miterlimit="10" stroke-linecap="round" stroke-linejoin="round"/>
<path d="M4.95562 3.48987H75.0397C77.1233 3.48987 78.828 5.18565 78.828 7.26393V55.4044C78.828 57.4782 77.1233 59.1785 75.0397 59.1785H4.95562C2.87203 59.1785 1.17188 57.4782 1.17188 55.4044V7.26393C1.17188 5.18565 2.87219 3.48987 4.95562 3.48987Z" stroke="url(#paint15_linear_602_4146)" stroke-width="2.4" stroke-miterlimit="10" stroke-linecap="round" stroke-linejoin="round"/>
<path d="M20.4063 76.5101H59.5885C60.0621 76.5101 60.4499 76.1233 60.4499 75.6465V73.2129C60.4499 71.4001 58.9662 69.9203 57.1487 69.9203H22.8507C21.0332 69.9203 19.5449 71.4003 19.5449 73.2129V75.6465C19.5449 76.1233 19.9327 76.5101 20.4063 76.5101Z" stroke="url(#paint16_linear_602_4146)" stroke-width="2.4" stroke-miterlimit="10" stroke-linecap="round" stroke-linejoin="round"/>
</g>
<defs>
<linearGradient id="paint0_linear_602_4146" x1="25.2684" y1="15.1719" x2="25.2684" y2="22.3152" gradientUnits="userSpaceOnUse">
<stop stop-color="#24C0EB"/>
<stop offset="1" stop-color="#6BD369"/>
</linearGradient>
<linearGradient id="paint1_linear_602_4146" x1="61.6906" y1="41.8105" x2="61.6906" y2="42.8105" gradientUnits="userSpaceOnUse">
<stop stop-color="#24C0EB"/>
<stop offset="1" stop-color="#6BD369"/>
</linearGradient>
<linearGradient id="paint2_linear_602_4146" x1="61.6906" y1="46.4888" x2="61.6906" y2="47.4888" gradientUnits="userSpaceOnUse">
<stop stop-color="#24C0EB"/>
<stop offset="1" stop-color="#6BD369"/>
</linearGradient>
<linearGradient id="paint3_linear_602_4146" x1="61.6906" y1="28.6757" x2="61.6906" y2="29.6757" gradientUnits="userSpaceOnUse">
<stop stop-color="#24C0EB"/>
<stop offset="1" stop-color="#6BD369"/>
</linearGradient>
<linearGradient id="paint4_linear_602_4146" x1="61.6906" y1="33.3494" x2="61.6906" y2="34.3494" gradientUnits="userSpaceOnUse">
<stop stop-color="#24C0EB"/>
<stop offset="1" stop-color="#6BD369"/>
</linearGradient>
<linearGradient id="paint5_linear_602_4146" x1="61.6906" y1="16.2244" x2="61.6906" y2="17.2244" gradientUnits="userSpaceOnUse">
<stop stop-color="#24C0EB"/>
<stop offset="1" stop-color="#6BD369"/>
</linearGradient>
<linearGradient id="paint6_linear_602_4146" x1="61.6906" y1="20.8982" x2="61.6906" y2="21.8982" gradientUnits="userSpaceOnUse">
<stop stop-color="#24C0EB"/>
<stop offset="1" stop-color="#6BD369"/>
</linearGradient>
<linearGradient id="paint7_linear_602_4146" x1="25.2703" y1="15.172" x2="25.2703" y2="35.4862" gradientUnits="userSpaceOnUse">
<stop stop-color="#24C0EB"/>
<stop offset="1" stop-color="#6BD369"/>
</linearGradient>
<linearGradient id="paint8_linear_602_4146" x1="25.2704" y1="40.7894" x2="25.2704" y2="47.1499" gradientUnits="userSpaceOnUse">
<stop stop-color="#24C0EB"/>
<stop offset="1" stop-color="#6BD369"/>
</linearGradient>
<linearGradient id="paint9_linear_602_4146" x1="47.6222" y1="27.6229" x2="47.6222" y2="34.015" gradientUnits="userSpaceOnUse">
<stop stop-color="#24C0EB"/>
<stop offset="1" stop-color="#6BD369"/>
</linearGradient>
<linearGradient id="paint10_linear_602_4146" x1="47.6222" y1="40.7579" x2="47.6222" y2="47.15" gradientUnits="userSpaceOnUse">
<stop stop-color="#24C0EB"/>
<stop offset="1" stop-color="#6BD369"/>
</linearGradient>
<linearGradient id="paint11_linear_602_4146" x1="47.6222" y1="15.172" x2="47.6222" y2="21.564" gradientUnits="userSpaceOnUse">
<stop stop-color="#24C0EB"/>
<stop offset="1" stop-color="#6BD369"/>
</linearGradient>
<linearGradient id="paint12_linear_602_4146" x1="39.9978" y1="59.1783" x2="39.9978" y2="69.9202" gradientUnits="userSpaceOnUse">
<stop stop-color="#24C0EB"/>
<stop offset="1" stop-color="#6BD369"/>
</linearGradient>
<linearGradient id="paint13_linear_602_4146" x1="39.998" y1="63.9196" x2="39.998" y2="69.9202" gradientUnits="userSpaceOnUse">
<stop stop-color="#24C0EB"/>
<stop offset="1" stop-color="#6BD369"/>
</linearGradient>
<linearGradient id="paint14_linear_602_4146" x1="39.9978" y1="8.62231" x2="39.9978" y2="54.0412" gradientUnits="userSpaceOnUse">
<stop stop-color="#24C0EB"/>
<stop offset="1" stop-color="#6BD369"/>
</linearGradient>
<linearGradient id="paint15_linear_602_4146" x1="39.9999" y1="3.48987" x2="39.9999" y2="59.1785" gradientUnits="userSpaceOnUse">
<stop stop-color="#24C0EB"/>
<stop offset="1" stop-color="#6BD369"/>
</linearGradient>
<linearGradient id="paint16_linear_602_4146" x1="39.9974" y1="69.9203" x2="39.9974" y2="76.5101" gradientUnits="userSpaceOnUse">
<stop stop-color="#24C0EB"/>
<stop offset="1" stop-color="#6BD369"/>
</linearGradient>
<clipPath id="clip0_602_4146">
<rect width="80" height="80" fill="white"/>
</clipPath>
</defs>
</svg>
