<svg width="49" height="48" viewBox="0 0 49 48" fill="none" xmlns="http://www.w3.org/2000/svg">
<g clip-path="url(#clip0_663_4187)">
<path d="M46.6312 22.8376L42 25.1439L36 13.6689L40.6875 11.3251C41.0359 11.1476 41.4403 11.1149 41.8126 11.2344C42.1849 11.3538 42.4949 11.6156 42.675 11.9626L47.2875 20.7939C47.381 20.9707 47.4383 21.1644 47.4558 21.3636C47.4734 21.5628 47.451 21.7636 47.3898 21.954C47.3287 22.1444 47.2301 22.3207 47.0998 22.4724C46.9695 22.6242 46.8102 22.7484 46.6312 22.8376V22.8376Z" stroke="white" stroke-width="2" stroke-linecap="round" stroke-linejoin="round"/>
<path d="M9.00017 24.9562L4.36892 22.6312C4.1906 22.5438 4.03167 22.4215 3.90159 22.2714C3.7715 22.1214 3.67292 21.9467 3.6117 21.7578C3.55048 21.5689 3.52787 21.3696 3.54521 21.1718C3.56256 20.9739 3.61951 20.7816 3.71267 20.6062L8.32517 11.775C8.5056 11.4282 8.81431 11.1655 9.18554 11.0429C9.55678 10.9203 9.9612 10.9475 10.3127 11.1187L15.0002 13.4625L9.00017 24.9562Z" stroke="white" stroke-width="2" stroke-linecap="round" stroke-linejoin="round"/>
<path d="M42 25.1436L39 28.6686L32.1 35.5686C31.9119 35.7444 31.6841 35.8721 31.4359 35.9407C31.1878 36.0092 30.9267 36.0167 30.675 35.9623L19.8 33.2436C19.6013 33.1882 19.4162 33.0924 19.2562 32.9623L9 24.9561" stroke="white" stroke-width="2" stroke-linecap="round" stroke-linejoin="round"/>
<path d="M39.0002 28.669L30.7502 22.669L28.3502 24.469C27.3104 25.245 26.0476 25.6643 24.7502 25.6643C23.4527 25.6643 22.19 25.245 21.1502 24.469L20.1377 23.7002C19.9665 23.57 19.8248 23.405 19.7222 23.216C19.6196 23.027 19.5582 22.8183 19.5423 22.6038C19.5263 22.3894 19.5561 22.1739 19.6297 21.9718C19.7032 21.7697 19.8188 21.5855 19.9689 21.4315L27.3189 14.1002C27.457 13.9628 27.6208 13.854 27.801 13.78C27.9811 13.706 28.1741 13.6683 28.3689 13.669H36.0002" stroke="white" stroke-width="2" stroke-linecap="round" stroke-linejoin="round"/>
<path d="M15.1123 13.4624L24.7311 10.6499C25.0728 10.5519 25.4383 10.5785 25.7623 10.7249L32.2498 13.6687" stroke="white" stroke-width="2" stroke-linecap="round" stroke-linejoin="round"/>
<path d="M22.5 39.9187L16.8563 38.4938C16.6263 38.4418 16.4133 38.3321 16.2375 38.175L12 34.5" stroke="white" stroke-width="2" stroke-linecap="round" stroke-linejoin="round"/>
</g>
<defs>
<clipPath id="clip0_663_4187">
<rect width="48" height="48" fill="white" transform="translate(0.5)"/>
</clipPath>
</defs>
</svg>
