<svg width="40" height="40" viewBox="0 0 40 40" fill="none" xmlns="http://www.w3.org/2000/svg">
<g clip-path="url(#clip0_734_5384)">
<path d="M20.6868 29.7969L28.5618 34.7969C29.5774 35.4375 30.8274 34.4844 30.5305 33.3125L28.2493 24.3438C28.1876 24.0952 28.1974 23.8342 28.2776 23.5909C28.3577 23.3477 28.505 23.132 28.7024 22.9688L35.7649 17.0782C36.6868 16.3125 36.218 14.7657 35.0149 14.6875L25.7961 14.0938C25.5446 14.0792 25.3028 13.9916 25.1002 13.8417C24.8976 13.6919 24.7431 13.4863 24.6555 13.25L21.218 4.59379C21.127 4.34364 20.9613 4.12754 20.7432 3.97484C20.5252 3.82214 20.2654 3.74023 19.9993 3.74023C19.7331 3.74023 19.4733 3.82214 19.2553 3.97484C19.0373 4.12754 18.8715 4.34364 18.7805 4.59379L15.343 13.25C15.2554 13.4863 15.1009 13.6919 14.8983 13.8417C14.6957 13.9916 14.4539 14.0792 14.2024 14.0938L4.98364 14.6875C3.78051 14.7657 3.31176 16.3125 4.23364 17.0782L11.2961 22.9688C11.4935 23.132 11.6408 23.3477 11.721 23.5909C11.8011 23.8342 11.8109 24.0952 11.7493 24.3438L9.63989 32.6563C9.28051 34.0625 10.7805 35.2032 11.9836 34.4375L19.3118 29.7969C19.5173 29.6662 19.7557 29.5968 19.9993 29.5968C20.2428 29.5968 20.4813 29.6662 20.6868 29.7969V29.7969Z" stroke="white" stroke-width="2" stroke-linecap="round" stroke-linejoin="round"/>
</g>
<defs>
<clipPath id="clip0_734_5384">
<rect width="40" height="40" fill="white"/>
</clipPath>
</defs>
</svg>
