<svg width="401" height="124" viewBox="0 0 401 124" fill="none" xmlns="http://www.w3.org/2000/svg">
<path d="M50.2802 24.6586L102.115 24.6586L120.257 6.59037L191.346 6.59037L191.346 22.5111L322.34 22.5111L322.34 21.0301L192.827 21.0301L192.827 5.10937L119.591 5.10937L101.449 23.2516L50.2061 23.2516C49.9099 22.0668 48.7992 21.1782 47.4663 21.1782C45.9112 21.1782 44.6524 22.4371 44.6524 23.9921C44.6524 25.5472 45.9112 26.806 47.4663 26.806C48.8732 26.732 49.9839 25.9174 50.2802 24.6586Z" fill="url(#paint0_linear_616_3949)"/>
<path d="M62.942 30.8791L105.225 30.8791L123.367 12.7369L185.273 12.7369L185.273 28.6576L325.449 28.6576L325.449 27.1766L186.754 27.1766L186.754 11.2559L122.7 11.2559L104.558 29.3981L62.942 29.3981C62.5717 28.2133 61.5351 27.3247 60.2021 27.3247C58.6471 27.3247 57.3882 28.5836 57.3882 30.1386C57.3882 31.6937 58.6471 32.9525 60.2021 32.9525C61.5351 32.9525 62.6458 32.0639 62.942 30.8791Z" fill="url(#paint1_linear_616_3949)"/>
<path d="M65.4596 37.7658L107.742 37.7658L125.884 19.6236L178.164 19.6236L178.164 35.5443L327.967 35.5443L327.967 34.0633L179.571 34.0633L179.571 18.1426L125.218 18.1426L107.076 36.2848L65.4596 36.2848C65.1634 35.1 64.0526 34.2114 62.7197 34.2114C61.1646 34.2114 59.9058 35.4703 59.9058 37.0253C59.9058 38.5804 61.1646 39.8392 62.7197 39.8392C64.0526 39.8392 65.1634 38.9506 65.4596 37.7658Z" fill="url(#paint2_linear_616_3949)"/>
<path d="M245.034 17.4758L245.034 8.44172L219.56 8.44172C219.19 7.25692 218.153 6.36832 216.821 6.36832C215.265 6.36832 214.007 7.62717 214.007 9.18222C214.007 10.7373 215.265 11.9961 216.821 11.9961C218.153 11.9961 219.19 11.1075 219.56 9.92272L243.479 9.92272L243.479 15.9208L201.862 15.9208L201.862 1.48099L255.253 1.481L255.253 17.4018L383.137 17.4018L383.137 15.9208L256.734 15.9208L256.734 -5.52527e-06L200.307 -7.99174e-06L200.307 17.4758L245.034 17.4758Z" fill="url(#paint3_linear_616_3949)"/>
<path d="M5.55377 107.965L57.3888 107.965L75.5311 89.8229L95.5246 89.8229L146.693 89.8229L146.693 105.744L277.688 105.744L277.688 104.263L148.174 104.263L148.174 88.3419L95.5246 88.3419L74.9387 88.3419L46.7256 88.3419C46.4294 87.1571 45.3187 86.2685 43.9858 86.2685C42.4307 86.2685 41.1719 87.5274 41.1719 89.0824C41.1719 90.6375 42.4307 91.8964 43.9858 91.8964C45.3187 91.8964 46.3554 91.0077 46.7256 89.8229L73.4577 89.8229L68.7925 94.4881L22.8815 94.4881C22.5853 93.3033 21.4745 92.4147 20.1416 92.4147C18.5866 92.4147 17.3277 93.6736 17.3277 95.2286C17.3277 96.7837 18.5866 98.0425 20.1416 98.0425C21.4745 98.0425 22.5112 97.1539 22.8815 95.9691L67.2375 95.9691L56.7964 106.41L5.55377 106.41C5.25757 105.225 4.14685 104.337 2.81393 104.337C1.25888 104.337 -8.44813e-07 105.596 -9.12787e-07 107.151C-9.8076e-07 108.706 1.25888 109.965 2.81393 109.965C4.14685 110.113 5.25757 109.224 5.55377 107.965Z" fill="url(#paint4_linear_616_3949)"/>
<path d="M18.2916 114.185L60.5742 114.185L78.7164 96.0425L140.622 96.0425L140.622 111.963L280.799 111.963L280.799 110.482L142.103 110.482L142.103 94.5615L78.05 94.5615L59.9077 112.704L18.2916 112.704C17.9214 111.519 16.8846 110.63 15.5517 110.63C13.9967 110.63 12.7379 111.889 12.7379 113.444C12.7379 114.999 13.9967 116.258 15.5517 116.258C16.8846 116.258 17.9214 115.37 18.2916 114.185Z" fill="url(#paint5_linear_616_3949)"/>
<path d="M20.8092 121.071L63.0918 121.071L81.234 102.929L133.439 102.929L133.439 118.85L283.317 118.85L283.317 117.369L134.92 117.369L134.92 101.448L80.5676 101.448L62.4253 119.59L20.8092 119.59C20.4389 118.406 19.4022 117.517 18.0693 117.517C16.5143 117.517 15.2554 118.776 15.2554 120.331C15.2554 121.886 16.5143 123.145 18.0693 123.145C19.4022 123.145 20.4389 122.256 20.8092 121.071Z" fill="url(#paint6_linear_616_3949)"/>
<path d="M150.025 58.9443L150.025 31.4717C151.21 31.1015 152.098 30.0648 152.098 28.7319C152.098 27.1768 150.84 25.918 149.285 25.918C147.73 25.918 146.471 27.1768 146.471 28.7319C146.471 30.0648 147.359 31.1015 148.544 31.4717L148.544 60.4253L174.832 60.4253L192.9 42.3571L263.988 42.3571L263.988 58.2778L394.983 58.2779L394.983 56.7969L265.469 56.7968L265.469 40.8761L192.234 40.8761L174.091 59.0183L150.025 59.0183L150.025 58.9443Z" fill="url(#paint7_linear_616_3949)"/>
<path d="M257.917 48.5023L257.917 64.4231L398.094 64.4231L398.094 62.9421L259.398 62.9421L259.398 47.0213L195.345 47.0213L177.203 65.1636L141.214 65.1636L141.214 42.6524C142.399 42.2821 143.288 41.2454 143.288 39.9125C143.288 38.3575 142.029 37.0986 140.474 37.0986C138.919 37.0986 137.66 38.3575 137.66 39.9125C137.66 41.2454 138.548 42.2821 139.733 42.6524L139.733 66.7186L177.869 66.7186L196.011 48.5764L257.917 48.5764L257.917 48.5023Z" fill="url(#paint8_linear_616_3949)"/>
<path d="M113.519 73.5316L180.387 73.5316L198.529 55.3893L250.808 55.3893L250.808 71.3101L400.612 71.3101L400.612 69.8291L252.215 69.8291L252.215 53.9083L197.863 53.9083L179.72 72.0506L113.519 72.0506C113.223 70.8658 112.113 69.9772 110.78 69.9772C109.225 69.9772 107.966 71.236 107.966 72.7911C107.966 74.3461 109.225 75.605 110.78 75.605C112.113 75.605 113.223 74.7164 113.519 73.5316Z" fill="url(#paint9_linear_616_3949)"/>
<path d="M211.191 62.9425C210.821 61.7577 209.784 60.8691 208.451 60.8691C206.896 60.8691 205.637 62.128 205.637 63.683C205.637 65.2381 206.896 66.4969 208.451 66.4969C209.784 66.4969 210.821 65.6083 211.191 64.4235L242.81 64.4235L242.81 80.3443L373.805 80.3443L373.805 78.8633L244.291 78.8633L244.291 62.9425L211.191 62.9425Z" fill="url(#paint10_linear_616_3949)"/>
<path d="M201.714 69.089C201.418 67.9042 200.307 67.0156 198.974 67.0156C197.419 67.0156 196.16 68.2745 196.16 69.8295C196.16 71.3846 197.419 72.6434 198.974 72.6434C200.307 72.6434 201.344 71.7548 201.714 70.57L236.665 70.57L236.665 86.4908L376.916 86.4908L376.916 85.0098L238.22 85.0098L238.22 69.089L201.714 69.089Z" fill="url(#paint11_linear_616_3949)"/>
<path d="M194.901 77.53L229.557 77.53L229.557 93.4507L379.434 93.4507L379.434 91.9697L231.038 91.9697L231.038 76.049L194.901 76.049C194.605 74.8642 193.494 73.9756 192.161 73.9756C190.606 73.9756 189.347 75.2344 189.347 76.7895C189.347 78.3445 190.606 79.6034 192.161 79.6034C193.494 79.6034 194.605 78.7148 194.901 77.53Z" fill="url(#paint12_linear_616_3949)"/>
<path d="M200.307 100.782L200.307 91.7484L174.834 91.7484C174.538 90.5636 173.427 89.675 172.094 89.675C170.539 89.675 169.28 90.9338 169.28 92.4889C169.28 94.0439 170.539 95.3028 172.094 95.3028C173.427 95.3028 174.464 94.4142 174.834 93.2294L198.752 93.2294L198.752 99.2274L157.136 99.2274L157.136 84.7876L210.526 84.7876L210.526 100.708L338.41 100.708L338.41 99.2274L212.081 99.2274L212.081 83.3066L155.655 83.3066L155.655 100.782L200.307 100.782Z" fill="url(#paint13_linear_616_3949)"/>
<defs>
<linearGradient id="paint0_linear_616_3949" x1="322.34" y1="15.9577" x2="44.6524" y2="15.9577" gradientUnits="userSpaceOnUse">
<stop stop-color="#24C0EB"/>
<stop offset="1" stop-color="#6BD369"/>
</linearGradient>
<linearGradient id="paint1_linear_616_3949" x1="325.449" y1="22.1042" x2="57.3882" y2="22.1042" gradientUnits="userSpaceOnUse">
<stop stop-color="#24C0EB"/>
<stop offset="1" stop-color="#6BD369"/>
</linearGradient>
<linearGradient id="paint2_linear_616_3949" x1="327.967" y1="28.9909" x2="59.9058" y2="28.9909" gradientUnits="userSpaceOnUse">
<stop stop-color="#24C0EB"/>
<stop offset="1" stop-color="#6BD369"/>
</linearGradient>
<linearGradient id="paint3_linear_616_3949" x1="383.137" y1="8.73792" x2="200.307" y2="8.73791" gradientUnits="userSpaceOnUse">
<stop stop-color="#24C0EB"/>
<stop offset="1" stop-color="#6BD369"/>
</linearGradient>
<linearGradient id="paint4_linear_616_3949" x1="277.688" y1="98.1246" x2="-5.18245e-07" y2="98.1246" gradientUnits="userSpaceOnUse">
<stop stop-color="#24C0EB"/>
<stop offset="1" stop-color="#6BD369"/>
</linearGradient>
<linearGradient id="paint5_linear_616_3949" x1="280.799" y1="105.41" x2="12.7379" y2="105.41" gradientUnits="userSpaceOnUse">
<stop stop-color="#24C0EB"/>
<stop offset="1" stop-color="#6BD369"/>
</linearGradient>
<linearGradient id="paint6_linear_616_3949" x1="283.317" y1="112.297" x2="15.2554" y2="112.297" gradientUnits="userSpaceOnUse">
<stop stop-color="#24C0EB"/>
<stop offset="1" stop-color="#6BD369"/>
</linearGradient>
<linearGradient id="paint7_linear_616_3949" x1="394.983" y1="43.1716" x2="146.471" y2="43.1716" gradientUnits="userSpaceOnUse">
<stop stop-color="#24C0EB"/>
<stop offset="1" stop-color="#6BD369"/>
</linearGradient>
<linearGradient id="paint8_linear_616_3949" x1="398.094" y1="51.9086" x2="137.66" y2="51.9086" gradientUnits="userSpaceOnUse">
<stop stop-color="#24C0EB"/>
<stop offset="1" stop-color="#6BD369"/>
</linearGradient>
<linearGradient id="paint9_linear_616_3949" x1="400.612" y1="64.7567" x2="107.966" y2="64.7567" gradientUnits="userSpaceOnUse">
<stop stop-color="#24C0EB"/>
<stop offset="1" stop-color="#6BD369"/>
</linearGradient>
<linearGradient id="paint10_linear_616_3949" x1="373.805" y1="70.6067" x2="205.637" y2="70.6067" gradientUnits="userSpaceOnUse">
<stop stop-color="#24C0EB"/>
<stop offset="1" stop-color="#6BD369"/>
</linearGradient>
<linearGradient id="paint11_linear_616_3949" x1="376.916" y1="76.7532" x2="196.16" y2="76.7532" gradientUnits="userSpaceOnUse">
<stop stop-color="#24C0EB"/>
<stop offset="1" stop-color="#6BD369"/>
</linearGradient>
<linearGradient id="paint12_linear_616_3949" x1="379.434" y1="83.7132" x2="189.347" y2="83.7132" gradientUnits="userSpaceOnUse">
<stop stop-color="#24C0EB"/>
<stop offset="1" stop-color="#6BD369"/>
</linearGradient>
<linearGradient id="paint13_linear_616_3949" x1="338.41" y1="92.0446" x2="155.655" y2="92.0446" gradientUnits="userSpaceOnUse">
<stop stop-color="#24C0EB"/>
<stop offset="1" stop-color="#6BD369"/>
</linearGradient>
</defs>
</svg>
