<svg width="94" height="95" viewBox="0 0 94 95" fill="none" xmlns="http://www.w3.org/2000/svg">
<g clip-path="url(#clip0_313_15924)">
<path d="M23.567 90.4443C23.567 93.1241 22.2279 94.4641 19.5499 94.4641H10.4445V81.3329H19.6838C22.3618 81.3329 23.7009 82.6728 23.7009 85.3526V90.4443H23.567ZM12.9886 91.7842H19.5499C20.4872 91.7842 20.8889 91.3822 20.8889 90.4443V85.2186C20.8889 84.2807 20.4872 83.8787 19.5499 83.8787H12.9886V91.7842ZM30.9316 94.4641H28.2536V81.3329H30.9316V94.4641ZM48.8747 85.2186V86.5586C48.8747 89.2384 47.5356 90.5783 44.8576 90.5783H38.2963V94.598H35.6182V81.4669H44.8576C47.5356 81.1989 48.8747 82.5388 48.8747 85.2186ZM46.1966 85.2186C46.1966 84.2807 45.7949 83.8787 44.8576 83.8787H38.2963V87.8985H44.8576C45.7949 87.8985 46.1966 87.4965 46.1966 86.5586V85.2186Z" fill="#24C0EB"/>
<path d="M23.567 90.4443C23.567 93.1241 22.2279 94.4641 19.5499 94.4641H10.4445V81.3329H19.6838C22.3618 81.3329 23.7009 82.6728 23.7009 85.3526V90.4443H23.567ZM12.9886 91.7842H19.5499C20.4872 91.7842 20.8889 91.3822 20.8889 90.4443V85.2186C20.8889 84.2807 20.4872 83.8787 19.5499 83.8787H12.9886V91.7842ZM30.9316 94.4641H28.2536V81.3329H30.9316V94.4641ZM48.8747 85.2186V86.5586C48.8747 89.2384 47.5356 90.5783 44.8576 90.5783H38.2963V94.598H35.6182V81.4669H44.8576C47.5356 81.1989 48.8747 82.5388 48.8747 85.2186ZM46.1966 85.2186C46.1966 84.2807 45.7949 83.8787 44.8576 83.8787H38.2963V87.8985H44.8576C45.7949 87.8985 46.1966 87.4965 46.1966 86.5586V85.2186Z" fill="black" fill-opacity="0.5"/>
<path d="M24.1025 90.4443C24.1025 91.9182 23.7008 92.9901 23.0313 93.7941C22.2279 94.598 21.1567 94.866 19.6837 94.866H9.90881V80.7969H19.6837C21.1567 80.7969 22.2279 81.1988 23.0313 81.8688C23.8347 82.6728 24.1025 83.7447 24.1025 85.2186V90.4443ZM22.2279 93.1241C22.7635 92.5881 23.0313 91.6502 23.0313 90.5783V85.3526C23.0313 84.1467 22.7635 83.3427 22.2279 82.8067C21.6923 82.2708 20.755 81.7348 19.6837 81.7348H10.8461V93.928H19.5498C20.755 93.928 21.6923 93.6601 22.2279 93.1241ZM13.5242 91.2482H19.5498C20.0855 91.2482 20.3533 90.9802 20.3533 90.4443V85.2186C20.3533 84.6826 20.0855 84.4146 19.5498 84.4146H13.5242V91.2482ZM19.6837 92.3201H12.5869V83.3427H19.6837C20.8889 83.3427 21.5584 84.0127 21.5584 85.2186V90.4443C21.4245 91.6502 20.8889 92.3201 19.6837 92.3201ZM30.9316 95H27.8518V80.7969H31.4672V95H30.9316ZM28.7892 93.928H30.396V81.7348H28.7892V93.928ZM49.4102 85.2186V86.5585C49.4102 89.5063 47.9373 90.9802 44.9914 90.9802H38.8319V95H35.2165V80.7969H44.9914C46.4644 80.7969 47.5356 81.1988 48.339 81.8688C49.0085 82.6728 49.4102 83.7447 49.4102 85.2186ZM48.339 86.5585V85.2186C48.339 84.0127 48.0712 83.2087 47.5356 82.6728C47 82.1368 46.0627 81.7348 44.8575 81.7348H36.1538V93.928H37.7607V89.9083H44.8575C47.2678 90.0423 48.339 88.8364 48.339 86.5585ZM45.7949 85.2186C45.7949 84.6826 45.527 84.4146 44.9914 84.4146H38.8319V87.3625H44.8575C45.1253 87.3625 45.3931 87.3625 45.527 87.2285C45.6609 87.0945 45.6609 86.9605 45.6609 86.5585V85.2186H45.7949ZM44.8575 83.3427C46.0627 83.3427 46.7322 84.0127 46.7322 85.2186V86.5585C46.7322 87.0945 46.5983 87.6304 46.1966 87.8984C45.9288 88.1664 45.3931 88.4344 44.8575 88.4344H37.7607V83.4767L44.8575 83.3427Z" fill="#24C0EB"/>
<path d="M24.1025 90.4443C24.1025 91.9182 23.7008 92.9901 23.0313 93.7941C22.2279 94.598 21.1567 94.866 19.6837 94.866H9.90881V80.7969H19.6837C21.1567 80.7969 22.2279 81.1988 23.0313 81.8688C23.8347 82.6728 24.1025 83.7447 24.1025 85.2186V90.4443ZM22.2279 93.1241C22.7635 92.5881 23.0313 91.6502 23.0313 90.5783V85.3526C23.0313 84.1467 22.7635 83.3427 22.2279 82.8067C21.6923 82.2708 20.755 81.7348 19.6837 81.7348H10.8461V93.928H19.5498C20.755 93.928 21.6923 93.6601 22.2279 93.1241ZM13.5242 91.2482H19.5498C20.0855 91.2482 20.3533 90.9802 20.3533 90.4443V85.2186C20.3533 84.6826 20.0855 84.4146 19.5498 84.4146H13.5242V91.2482ZM19.6837 92.3201H12.5869V83.3427H19.6837C20.8889 83.3427 21.5584 84.0127 21.5584 85.2186V90.4443C21.4245 91.6502 20.8889 92.3201 19.6837 92.3201ZM30.9316 95H27.8518V80.7969H31.4672V95H30.9316ZM28.7892 93.928H30.396V81.7348H28.7892V93.928ZM49.4102 85.2186V86.5585C49.4102 89.5063 47.9373 90.9802 44.9914 90.9802H38.8319V95H35.2165V80.7969H44.9914C46.4644 80.7969 47.5356 81.1988 48.339 81.8688C49.0085 82.6728 49.4102 83.7447 49.4102 85.2186ZM48.339 86.5585V85.2186C48.339 84.0127 48.0712 83.2087 47.5356 82.6728C47 82.1368 46.0627 81.7348 44.8575 81.7348H36.1538V93.928H37.7607V89.9083H44.8575C47.2678 90.0423 48.339 88.8364 48.339 86.5585ZM45.7949 85.2186C45.7949 84.6826 45.527 84.4146 44.9914 84.4146H38.8319V87.3625H44.8575C45.1253 87.3625 45.3931 87.3625 45.527 87.2285C45.6609 87.0945 45.6609 86.9605 45.6609 86.5585V85.2186H45.7949ZM44.8575 83.3427C46.0627 83.3427 46.7322 84.0127 46.7322 85.2186V86.5585C46.7322 87.0945 46.5983 87.6304 46.1966 87.8984C45.9288 88.1664 45.3931 88.4344 44.8575 88.4344H37.7607V83.4767L44.8575 83.3427Z" fill="black" fill-opacity="0.5"/>
<path d="M65.7465 90.4443C65.7465 93.1242 64.4074 94.4641 61.7294 94.4641H53.1596V91.7843H61.7294C62.6667 91.7843 63.0684 91.3823 63.0684 90.4443C63.0684 89.5064 62.6667 89.1044 61.7294 89.1044H56.5071C53.8291 89.1044 52.4901 87.7645 52.4901 85.0847C52.4901 82.4049 53.8291 81.0649 56.5071 81.0649H65.0769V83.7448H56.5071C55.5698 83.7448 55.1681 84.1467 55.1681 85.0847C55.1681 86.0226 55.5698 86.4246 56.5071 86.4246H61.7294C64.4074 86.5586 65.7465 87.8985 65.7465 90.4443ZM83.02 83.8788H72.4416V86.5586H80.3419V89.2384H72.4416V91.9183H83.02V94.5981H69.8975V81.4669H83.02V83.8788Z" fill="#24C0EB"/>
<path d="M65.7465 90.4443C65.7465 93.1242 64.4074 94.4641 61.7294 94.4641H53.1596V91.7843H61.7294C62.6667 91.7843 63.0684 91.3823 63.0684 90.4443C63.0684 89.5064 62.6667 89.1044 61.7294 89.1044H56.5071C53.8291 89.1044 52.4901 87.7645 52.4901 85.0847C52.4901 82.4049 53.8291 81.0649 56.5071 81.0649H65.0769V83.7448H56.5071C55.5698 83.7448 55.1681 84.1467 55.1681 85.0847C55.1681 86.0226 55.5698 86.4246 56.5071 86.4246H61.7294C64.4074 86.5586 65.7465 87.8985 65.7465 90.4443ZM83.02 83.8788H72.4416V86.5586H80.3419V89.2384H72.4416V91.9183H83.02V94.5981H69.8975V81.4669H83.02V83.8788Z" fill="black" fill-opacity="0.5"/>
<path d="M66.1481 90.4443C66.1481 91.9182 65.7464 92.9901 65.0769 93.7941C64.2735 94.598 63.2023 94.866 61.7293 94.866H52.6239V91.2482H61.7293C62.265 91.2482 62.5328 90.9802 62.5328 90.4443C62.5328 89.9083 62.265 89.6403 61.7293 89.6403H56.5071C55.0342 89.6403 53.963 89.2383 53.1595 88.5684C52.3561 87.7644 52.0883 86.6925 52.0883 85.2186C52.0883 83.7447 52.49 82.6728 53.1595 81.8688C53.963 81.0649 55.0342 80.7969 56.5071 80.7969H65.6125V84.4146H56.5071C55.9715 84.4146 55.7037 84.6826 55.7037 85.2186C55.7037 85.7546 55.9715 86.0225 56.5071 86.0225H61.7293C64.6752 86.0225 66.1481 87.4965 66.1481 90.4443ZM64.4074 93.1241C64.943 92.5881 65.2108 91.6502 65.2108 90.5783C65.2108 88.3004 64.0057 87.0945 61.7293 87.0945H56.5071C55.302 87.0945 54.6325 86.4245 54.6325 85.2186C54.6325 84.0127 55.302 83.3427 56.5071 83.3427H64.5413V81.7348H56.5071C55.302 81.7348 54.4986 82.0028 53.963 82.5388C53.4273 83.0747 53.1595 84.0127 53.1595 85.0846C53.1595 86.1565 53.4273 87.0945 53.963 87.6304C54.4986 88.1664 55.4359 88.4344 56.5071 88.4344H61.7293C62.9345 88.4344 63.604 89.1044 63.604 90.3103C63.604 91.5162 62.9345 92.1862 61.7293 92.1862H53.6952V93.7941H61.7293C62.9345 93.928 63.7379 93.6601 64.4074 93.1241ZM83.0199 84.4146H72.9772V86.0225H80.8775V89.6403H72.9772V91.2482H83.5556V94.866H69.3618V80.7969H83.5556V84.4146H83.0199ZM72.5755 83.3427H82.6182V81.7348H70.433V93.928H82.6182V92.3201H72.0399V88.7024H79.9402V87.0945H72.0399V83.4767L72.5755 83.3427Z" fill="#24C0EB"/>
<path d="M66.1481 90.4443C66.1481 91.9182 65.7464 92.9901 65.0769 93.7941C64.2735 94.598 63.2023 94.866 61.7293 94.866H52.6239V91.2482H61.7293C62.265 91.2482 62.5328 90.9802 62.5328 90.4443C62.5328 89.9083 62.265 89.6403 61.7293 89.6403H56.5071C55.0342 89.6403 53.963 89.2383 53.1595 88.5684C52.3561 87.7644 52.0883 86.6925 52.0883 85.2186C52.0883 83.7447 52.49 82.6728 53.1595 81.8688C53.963 81.0649 55.0342 80.7969 56.5071 80.7969H65.6125V84.4146H56.5071C55.9715 84.4146 55.7037 84.6826 55.7037 85.2186C55.7037 85.7546 55.9715 86.0225 56.5071 86.0225H61.7293C64.6752 86.0225 66.1481 87.4965 66.1481 90.4443ZM64.4074 93.1241C64.943 92.5881 65.2108 91.6502 65.2108 90.5783C65.2108 88.3004 64.0057 87.0945 61.7293 87.0945H56.5071C55.302 87.0945 54.6325 86.4245 54.6325 85.2186C54.6325 84.0127 55.302 83.3427 56.5071 83.3427H64.5413V81.7348H56.5071C55.302 81.7348 54.4986 82.0028 53.963 82.5388C53.4273 83.0747 53.1595 84.0127 53.1595 85.0846C53.1595 86.1565 53.4273 87.0945 53.963 87.6304C54.4986 88.1664 55.4359 88.4344 56.5071 88.4344H61.7293C62.9345 88.4344 63.604 89.1044 63.604 90.3103C63.604 91.5162 62.9345 92.1862 61.7293 92.1862H53.6952V93.7941H61.7293C62.9345 93.928 63.7379 93.6601 64.4074 93.1241ZM83.0199 84.4146H72.9772V86.0225H80.8775V89.6403H72.9772V91.2482H83.5556V94.866H69.3618V80.7969H83.5556V84.4146H83.0199ZM72.5755 83.3427H82.6182V81.7348H70.433V93.928H82.6182V92.3201H72.0399V88.7024H79.9402V87.0945H72.0399V83.4767L72.5755 83.3427Z" fill="black" fill-opacity="0.5"/>
<path d="M18.2108 0H32.1368V5.35966H18.2108C17.5413 5.35966 17.0057 5.62764 16.4701 6.02962C16.0684 6.43159 15.8006 7.10155 15.8006 7.77151V65.2539C15.8006 65.9238 16.0684 66.4598 16.4701 66.9958C16.8718 67.3977 17.5413 67.6657 18.2108 67.6657H75.6553C76.3248 67.6657 76.8604 67.3977 77.396 66.9958C77.7977 66.5938 78.0655 65.9238 78.0655 65.2539V7.77151C78.0655 7.10155 77.7977 6.56559 77.396 6.02962C76.9943 5.62764 76.4587 5.35966 75.7892 5.35966H37.6268V0H75.7892C77.9316 0 79.8063 0.937941 81.2792 2.27786C82.7522 3.75176 83.5556 5.62765 83.5556 7.77151V65.2539C83.5556 67.3977 82.6182 69.2736 81.2792 70.7475C79.8063 72.2214 77.9316 73.0254 75.7892 73.0254H18.2108C16.0684 73.0254 14.1937 72.0874 12.7208 70.7475C11.2479 69.2736 10.4445 67.3977 10.4445 65.2539V7.77151C10.4445 5.62765 11.3818 3.75176 12.7208 2.27786C14.1937 0.937941 16.0684 0 18.2108 0Z" fill="#24C0EB"/>
<path d="M18.2108 0H32.1368V5.35966H18.2108C17.5413 5.35966 17.0057 5.62764 16.4701 6.02962C16.0684 6.43159 15.8006 7.10155 15.8006 7.77151V65.2539C15.8006 65.9238 16.0684 66.4598 16.4701 66.9958C16.8718 67.3977 17.5413 67.6657 18.2108 67.6657H75.6553C76.3248 67.6657 76.8604 67.3977 77.396 66.9958C77.7977 66.5938 78.0655 65.9238 78.0655 65.2539V7.77151C78.0655 7.10155 77.7977 6.56559 77.396 6.02962C76.9943 5.62764 76.4587 5.35966 75.7892 5.35966H37.6268V0H75.7892C77.9316 0 79.8063 0.937941 81.2792 2.27786C82.7522 3.75176 83.5556 5.62765 83.5556 7.77151V65.2539C83.5556 67.3977 82.6182 69.2736 81.2792 70.7475C79.8063 72.2214 77.9316 73.0254 75.7892 73.0254H18.2108C16.0684 73.0254 14.1937 72.0874 12.7208 70.7475C11.2479 69.2736 10.4445 67.3977 10.4445 65.2539V7.77151C10.4445 5.62765 11.3818 3.75176 12.7208 2.27786C14.1937 0.937941 16.0684 0 18.2108 0Z" fill="black" fill-opacity="0.5"/>
<path d="M18.2108 0H32.1368V5.35966H18.2108C17.5413 5.35966 17.0057 5.62764 16.4701 6.02962C16.0684 6.43159 15.8006 7.10155 15.8006 7.77151V65.2539C15.8006 65.9238 16.0684 66.4598 16.4701 66.9958C16.8718 67.3977 17.5413 67.6657 18.2108 67.6657H75.6553C76.3248 67.6657 76.8604 67.3977 77.396 66.9958C77.7977 66.5938 78.0655 65.9238 78.0655 65.2539V7.77151C78.0655 7.10155 77.7977 6.56559 77.396 6.02962C76.9943 5.62764 76.4587 5.35966 75.7892 5.35966H37.6268V0H75.7892C77.9316 0 79.8063 0.937941 81.2792 2.27786C82.7522 3.75176 83.5556 5.62765 83.5556 7.77151V65.2539C83.5556 67.3977 82.6182 69.2736 81.2792 70.7475C79.8063 72.2214 77.9316 73.0254 75.7892 73.0254H18.2108C16.0684 73.0254 14.1937 72.0874 12.7208 70.7475C11.2479 69.2736 10.4445 67.3977 10.4445 65.2539V7.77151C10.4445 5.62765 11.3818 3.75176 12.7208 2.27786C14.1937 0.937941 16.0684 0 18.2108 0Z" fill="url(#paint0_linear_313_15924)"/>
<path d="M28.1196 11.6572H65.7464C67.3532 11.6572 68.9601 12.3272 70.0313 13.3991C71.1025 14.471 71.7721 15.945 71.7721 17.6868V33.8998H66.4159V17.6868C66.4159 17.5529 66.282 17.2849 66.282 17.2849C66.1481 17.1509 66.0142 17.1509 65.8803 17.1509H28.1196C27.9857 17.1509 27.7179 17.2849 27.7179 17.2849C27.584 17.4189 27.584 17.5529 27.584 17.6868V55.3385C27.584 55.4725 27.7179 55.7404 27.7179 55.7404C27.8518 55.8744 27.9857 55.8744 28.1196 55.8744H65.7464C65.8803 55.8744 66.1481 55.7404 66.1481 55.7404C66.282 55.6064 66.282 55.4725 66.282 55.3385V49.8448H71.6381V55.3385C71.6381 56.9464 70.9686 58.5543 69.8974 59.6262C68.8262 60.6981 67.3533 61.3681 65.6125 61.3681H28.1196C26.5128 61.3681 24.906 60.6981 23.8347 59.6262C22.7635 58.5543 22.094 57.0804 22.094 55.3385V17.6868C22.094 16.0789 22.7635 14.471 23.8347 13.3991C25.0399 12.3272 26.5128 11.6572 28.1196 11.6572ZM66.4159 44.4852V39.1255H71.7721V44.4852H66.4159Z" fill="#24C0EB"/>
<path d="M28.1196 11.6572H65.7464C67.3532 11.6572 68.9601 12.3272 70.0313 13.3991C71.1025 14.471 71.7721 15.945 71.7721 17.6868V33.8998H66.4159V17.6868C66.4159 17.5529 66.282 17.2849 66.282 17.2849C66.1481 17.1509 66.0142 17.1509 65.8803 17.1509H28.1196C27.9857 17.1509 27.7179 17.2849 27.7179 17.2849C27.584 17.4189 27.584 17.5529 27.584 17.6868V55.3385C27.584 55.4725 27.7179 55.7404 27.7179 55.7404C27.8518 55.8744 27.9857 55.8744 28.1196 55.8744H65.7464C65.8803 55.8744 66.1481 55.7404 66.1481 55.7404C66.282 55.6064 66.282 55.4725 66.282 55.3385V49.8448H71.6381V55.3385C71.6381 56.9464 70.9686 58.5543 69.8974 59.6262C68.8262 60.6981 67.3533 61.3681 65.6125 61.3681H28.1196C26.5128 61.3681 24.906 60.6981 23.8347 59.6262C22.7635 58.5543 22.094 57.0804 22.094 55.3385V17.6868C22.094 16.0789 22.7635 14.471 23.8347 13.3991C25.0399 12.3272 26.5128 11.6572 28.1196 11.6572ZM66.4159 44.4852V39.1255H71.7721V44.4852H66.4159Z" fill="black" fill-opacity="0.5"/>
<path d="M28.1196 11.6572H65.7464C67.3532 11.6572 68.9601 12.3272 70.0313 13.3991C71.1025 14.471 71.7721 15.945 71.7721 17.6868V33.8998H66.4159V17.6868C66.4159 17.5529 66.282 17.2849 66.282 17.2849C66.1481 17.1509 66.0142 17.1509 65.8803 17.1509H28.1196C27.9857 17.1509 27.7179 17.2849 27.7179 17.2849C27.584 17.4189 27.584 17.5529 27.584 17.6868V55.3385C27.584 55.4725 27.7179 55.7404 27.7179 55.7404C27.8518 55.8744 27.9857 55.8744 28.1196 55.8744H65.7464C65.8803 55.8744 66.1481 55.7404 66.1481 55.7404C66.282 55.6064 66.282 55.4725 66.282 55.3385V49.8448H71.6381V55.3385C71.6381 56.9464 70.9686 58.5543 69.8974 59.6262C68.8262 60.6981 67.3533 61.3681 65.6125 61.3681H28.1196C26.5128 61.3681 24.906 60.6981 23.8347 59.6262C22.7635 58.5543 22.094 57.0804 22.094 55.3385V17.6868C22.094 16.0789 22.7635 14.471 23.8347 13.3991C25.0399 12.3272 26.5128 11.6572 28.1196 11.6572ZM66.4159 44.4852V39.1255H71.7721V44.4852H66.4159Z" fill="url(#paint1_linear_313_15924)"/>
<path d="M58.2479 41.0014C58.2479 45.5571 55.9715 47.835 51.4188 47.835H35.7521V25.1904H51.5527C56.1054 25.1904 58.3818 27.4683 58.3818 32.024V41.0014H58.2479ZM40.1709 43.2793H51.4188C52.8917 43.2793 53.6952 42.4753 53.6952 41.0014V32.024C53.6952 30.5501 52.8917 29.7461 51.4188 29.7461H40.1709V43.2793Z" fill="#24C0EB"/>
<path d="M58.2479 41.0014C58.2479 45.5571 55.9715 47.835 51.4188 47.835H35.7521V25.1904H51.5527C56.1054 25.1904 58.3818 27.4683 58.3818 32.024V41.0014H58.2479ZM40.1709 43.2793H51.4188C52.8917 43.2793 53.6952 42.4753 53.6952 41.0014V32.024C53.6952 30.5501 52.8917 29.7461 51.4188 29.7461H40.1709V43.2793Z" fill="black" fill-opacity="0.1"/>
<path d="M58.2479 41.0014C58.2479 45.5571 55.9715 47.835 51.4188 47.835H35.7521V25.1904H51.5527C56.1054 25.1904 58.3818 27.4683 58.3818 32.024V41.0014H58.2479ZM40.1709 43.2793H51.4188C52.8917 43.2793 53.6952 42.4753 53.6952 41.0014V32.024C53.6952 30.5501 52.8917 29.7461 51.4188 29.7461H40.1709V43.2793Z" fill="url(#paint2_linear_313_15924)"/>
<path d="M83.5555 33.8999H94V39.2596H83.5555V33.8999Z" fill="#24C0EB"/>
<path d="M83.5555 33.8999H94V39.2596H83.5555V33.8999Z" fill="black" fill-opacity="0.5"/>
<path d="M83.5555 49.0409H94V54.4006H83.5555V49.0409Z" fill="#24C0EB"/>
<path d="M83.5555 49.0409H94V54.4006H83.5555V49.0409Z" fill="black" fill-opacity="0.5"/>
<path d="M83.5555 19.2948H94V24.6545H83.5555V19.2948Z" fill="#24C0EB"/>
<path d="M83.5555 19.2948H94V24.6545H83.5555V19.2948Z" fill="black" fill-opacity="0.5"/>
<path d="M0 33.8999H10.4444V39.2596H0V33.8999Z" fill="#24C0EB"/>
<path d="M0 33.8999H10.4444V39.2596H0V33.8999Z" fill="black" fill-opacity="0.5"/>
<path d="M0 49.0409H10.4444V54.4006H0V49.0409Z" fill="#24C0EB"/>
<path d="M0 49.0409H10.4444V54.4006H0V49.0409Z" fill="black" fill-opacity="0.5"/>
<path d="M0 19.2948H10.4444V24.6545H0V19.2948Z" fill="#24C0EB"/>
<path d="M0 19.2948H10.4444V24.6545H0V19.2948Z" fill="black" fill-opacity="0.5"/>
</g>
<defs>
<linearGradient id="paint0_linear_313_15924" x1="47" y1="0" x2="47" y2="73.0254" gradientUnits="userSpaceOnUse">
<stop stop-color="#198CAC"/>
<stop offset="1" stop-color="#54D798"/>
</linearGradient>
<linearGradient id="paint1_linear_313_15924" x1="46.933" y1="11.6572" x2="46.933" y2="61.3681" gradientUnits="userSpaceOnUse">
<stop stop-color="#198CAC"/>
<stop offset="1" stop-color="#54D798"/>
</linearGradient>
<linearGradient id="paint2_linear_313_15924" x1="47.0669" y1="25.1904" x2="47.0669" y2="47.835" gradientUnits="userSpaceOnUse">
<stop stop-color="#198CAC"/>
<stop offset="1" stop-color="#24C0EB"/>
</linearGradient>
<clipPath id="clip0_313_15924">
<rect width="94" height="95" fill="white"/>
</clipPath>
</defs>
</svg>
