<svg width="124" height="401" viewBox="0 0 124 401" fill="none" xmlns="http://www.w3.org/2000/svg">
<path d="M24.6586 350.33L24.6586 298.495L6.59038 280.353L6.59038 209.265H22.5111L22.5111 78.2705H21.0301L21.0301 207.784H5.10938L5.10938 281.02L23.2516 299.162L23.2516 350.404C22.0668 350.701 21.1782 351.811 21.1782 353.144C21.1782 354.699 22.4371 355.958 23.9921 355.958C25.5472 355.958 26.806 354.699 26.806 353.144C26.732 351.737 25.9174 350.627 24.6586 350.33Z" fill="white"/>
<path d="M30.8791 337.669L30.8791 295.386L12.7369 277.244L12.7369 215.338H28.6576L28.6576 75.1611H27.1766L27.1766 213.857H11.2559L11.2559 277.91L29.3981 296.052L29.3981 337.669C28.2133 338.039 27.3247 339.076 27.3247 340.408C27.3247 341.964 28.5836 343.222 30.1386 343.222C31.6937 343.222 32.9525 341.964 32.9525 340.408C32.9525 339.076 32.0639 337.965 30.8791 337.669Z" fill="white"/>
<path d="M37.7658 335.151L37.7658 292.868L19.6236 274.726L19.6236 222.447H35.5443L35.5443 72.6436H34.0633L34.0633 221.04H18.1426L18.1426 275.393L36.2848 293.535L36.2848 335.151C35.1 335.447 34.2114 336.558 34.2114 337.891C34.2114 339.446 35.4703 340.705 37.0253 340.705C38.5804 340.705 39.8392 339.446 39.8392 337.891C39.8392 336.558 38.9506 335.447 37.7658 335.151Z" fill="white"/>
<path d="M17.4758 155.579H8.44172L8.44172 181.052C7.25692 181.422 6.36833 182.459 6.36833 183.792C6.36833 185.347 7.62717 186.606 9.18222 186.606C10.7373 186.606 11.9961 185.347 11.9961 183.792C11.9961 182.459 11.1075 181.422 9.92272 181.052L9.92272 157.134H15.9208L15.9208 198.75H1.481L1.481 145.36H17.4018L17.4018 17.4756H15.9208L15.9208 143.879H0L0 200.305H17.4758L17.4758 155.579Z" fill="white"/>
<path d="M107.964 395.057L107.964 343.222L89.822 325.08V305.086L89.822 253.917H105.743L105.743 122.923H104.262L104.262 252.436H88.341L88.341 305.086V325.672L88.341 353.885C87.1562 354.181 86.2676 355.292 86.2676 356.625C86.2676 358.18 87.5264 359.439 89.0815 359.439C90.6365 359.439 91.8954 358.18 91.8954 356.625C91.8954 355.292 91.0068 354.255 89.822 353.885L89.822 327.153L94.4872 331.818L94.4872 377.729C93.3024 378.025 92.4137 379.136 92.4137 380.469C92.4137 382.024 93.6726 383.283 95.2277 383.283C96.7827 383.283 98.0416 382.024 98.0416 380.469C98.0416 379.136 97.153 378.099 95.9682 377.729L95.9682 333.373L106.409 343.814L106.409 395.057C105.224 395.353 104.336 396.464 104.336 397.797C104.336 399.352 105.595 400.611 107.15 400.611C108.705 400.611 109.964 399.352 109.964 397.797C110.112 396.464 109.223 395.353 107.964 395.057Z" fill="white"/>
<path d="M114.186 382.321L114.186 340.038L96.0435 321.896V259.99H111.964L111.964 119.813H110.483L110.483 258.509H94.5625V322.563L112.705 340.705L112.705 382.321C111.52 382.691 110.631 383.728 110.631 385.061C110.631 386.616 111.89 387.875 113.445 387.875C115 387.875 116.259 386.616 116.259 385.061C116.259 383.728 115.371 382.691 114.186 382.321Z" fill="white"/>
<path d="M121.072 379.802L121.072 337.52L102.93 319.378V267.172H118.851L118.851 117.295H117.37L117.37 265.691H101.449V320.044L119.591 338.186L119.591 379.802C118.407 380.173 117.518 381.209 117.518 382.542C117.518 384.097 118.777 385.356 120.332 385.356C121.887 385.356 123.146 384.097 123.146 382.542C123.146 381.209 122.257 380.173 121.072 379.802Z" fill="white"/>
<path d="M58.9443 250.586H31.4717C31.1015 249.401 30.0648 248.512 28.7319 248.512C27.1768 248.512 25.918 249.771 25.918 251.326C25.918 252.881 27.1768 254.14 28.7319 254.14C30.0648 254.14 31.1015 253.251 31.4717 252.067H60.4253L60.4253 225.779L42.3571 207.711L42.3571 136.622H58.2779L58.2779 5.62793H56.7969L56.7969 135.141H40.8761L40.8761 208.377L59.0184 226.519L59.0184 250.586H58.9443Z" fill="white"/>
<path d="M48.5033 142.694H64.4241L64.4241 2.51758L62.9431 2.51758L62.9431 141.213H47.0223L47.0223 205.267L65.1646 223.409L65.1646 259.397H42.6534C42.2831 258.212 41.2464 257.324 39.9135 257.324C38.3585 257.324 37.0996 258.583 37.0996 260.138C37.0996 261.693 38.3585 262.952 39.9135 262.952C41.2464 262.952 42.2831 262.063 42.6534 260.878H66.7196L66.7196 222.742L48.5774 204.6L48.5774 142.694H48.5033Z" fill="white"/>
<path d="M73.5315 287.092L73.5315 220.225L55.3892 202.083L55.3892 149.803H71.31L71.31 0L69.829 0L69.829 148.396H53.9082L53.9082 202.749L72.0505 220.891L72.0505 287.092C70.8657 287.388 69.9771 288.499 69.9771 289.832C69.9771 291.387 71.2359 292.646 72.791 292.646C74.346 292.646 75.6049 291.387 75.6049 289.832C75.6049 288.499 74.7163 287.388 73.5315 287.092Z" fill="white"/>
<path d="M62.9425 189.42C61.7577 189.79 60.8691 190.827 60.8691 192.159C60.8691 193.715 62.128 194.973 63.683 194.973C65.2381 194.973 66.4969 193.715 66.4969 192.159C66.4969 190.827 65.6083 189.79 64.4235 189.42L64.4235 157.8H80.3443L80.3443 26.8057H78.8633L78.8633 156.319H62.9425L62.9425 189.42Z" fill="white"/>
<path d="M69.089 198.899C67.9042 199.195 67.0156 200.306 67.0156 201.639C67.0156 203.194 68.2745 204.452 69.8295 204.452C71.3846 204.452 72.6435 203.194 72.6435 201.639C72.6435 200.306 71.7548 199.269 70.57 198.899V163.947H86.4908L86.4908 23.6963H85.0098L85.0098 162.392H69.089V198.899Z" fill="white"/>
<path d="M77.531 205.711V171.056H93.4517L93.4517 21.1787H91.9707L91.9707 169.575H76.05V205.711C74.8652 206.008 73.9766 207.118 73.9766 208.451C73.9766 210.006 75.2354 211.265 76.7905 211.265C78.3455 211.265 79.6043 210.006 79.6043 208.451C79.6043 207.118 78.7158 206.008 77.531 205.711Z" fill="white"/>
<path d="M100.782 200.306H91.7484V225.779C90.5636 226.075 89.675 227.186 89.675 228.519C89.675 230.074 90.9338 231.332 92.4889 231.332C94.0439 231.332 95.3028 230.074 95.3028 228.519C95.3028 227.186 94.4142 226.149 93.2294 225.779V201.861H99.2274V243.477H84.7876L84.7876 190.087H100.708L100.708 62.2021H99.2274L99.2274 188.532H83.3066L83.3066 244.958H100.782V200.306Z" fill="white"/>
</svg>
