<svg width="1302" height="162" viewBox="0 0 1302 162" fill="none" xmlns="http://www.w3.org/2000/svg">
<path d="M322.429 11.1053V22.9899H263.575V0H337.824V20.9442H1327V22.8924H335.875V1.94831H265.621V20.9442H320.383V13.0536H288.909C288.422 14.6122 287.058 15.7811 285.304 15.7811C283.258 15.7811 281.601 14.1251 281.601 12.0794C281.601 10.0337 283.258 8.37771 285.304 8.37771C287.058 8.37771 288.422 9.54662 288.909 11.1053H322.429Z" fill="url(#paint0_linear_602_3968)"/>
<path d="M134.37 32.4389H66.1619C65.7722 34.095 64.3106 35.1666 62.4592 35.264C60.413 35.264 58.7565 33.6079 58.7565 31.5622C58.7565 29.5165 60.413 27.8604 62.4592 27.8604C64.2132 27.8604 65.6747 29.0294 66.0645 30.5881H133.493L157.366 6.7215H253.734V27.6657H1327V29.6139H251.785V8.66982H158.243L134.37 32.4389Z" fill="url(#paint1_linear_602_3968)"/>
<path d="M138.461 40.6222H82.8232C82.4334 42.1808 80.9718 43.3498 79.2179 43.3498C77.1717 43.3498 75.5151 41.6938 75.5151 39.648C75.5151 37.6023 77.1717 35.9463 79.2179 35.9463C80.9718 35.9463 82.336 37.1153 82.8232 38.6739H137.584L161.457 14.8073H245.743V35.7515H1327V37.6997H243.794V16.7557H162.334L138.461 40.6222Z" fill="url(#paint2_linear_602_3968)"/>
<path d="M86.136 49.6818H141.774L165.647 25.8153H234.44V46.7594H1327V44.8111H236.291V23.867H164.77L140.897 47.7336H86.136C85.7463 46.1749 84.2846 45.0059 82.5307 45.0059C80.4845 45.0059 78.828 46.662 78.828 48.7077C78.828 50.7534 80.4845 52.4094 82.5307 52.4094C84.2846 52.4094 85.7463 51.2405 86.136 49.6818Z" fill="url(#paint3_linear_602_3968)"/>
<path d="M7.30802 142.031H75.5159L99.3887 118.164H193.029V139.108H1327V137.16H194.977V116.216H61.4847C61.0949 114.657 59.6333 113.488 57.8794 113.488C55.8331 113.488 54.1767 115.144 54.1767 117.19C54.1767 119.236 55.8331 120.892 57.8794 120.892C59.6333 120.892 60.9974 119.723 61.4847 118.164H96.6605L90.5217 124.301L30.1089 124.301C29.7192 122.743 28.2576 121.574 26.5037 121.574C24.4575 121.574 22.801 123.23 22.801 125.276C22.801 127.321 24.4575 128.977 26.5036 128.977C28.2576 128.977 29.6218 127.808 30.1089 126.25H88.4755L74.7364 139.985H7.30802C6.91825 138.426 5.4567 137.257 3.7028 137.257C1.65656 137.257 0 138.914 0 140.959C0 143.005 1.65656 144.661 3.7028 144.661C5.4567 144.856 6.91825 143.687 7.30802 142.031Z" fill="url(#paint4_linear_602_3968)"/>
<path d="M79.705 150.213H24.0668C23.5795 151.771 22.2154 152.94 20.4615 152.94C18.4152 152.94 16.7587 151.284 16.7587 149.239C16.7587 147.193 18.4152 145.537 20.4615 145.537C22.2154 145.537 23.5795 146.706 24.0668 148.264H78.8279L102.701 124.398H186.986L186.986 145.342H1327V147.29H185.038V126.346H103.578L79.705 150.213Z" fill="url(#paint5_linear_602_3968)"/>
<path d="M27.3808 159.272H83.019L106.892 135.406H175.587V156.35H1327V154.402H177.536V133.458H106.015L82.142 157.324H27.3808C26.8936 155.765 25.5294 154.596 23.7755 154.596C21.7293 154.596 20.0728 156.253 20.0728 158.298C20.0728 160.344 21.7293 162 23.7755 162C25.5294 162 26.8936 160.831 27.3808 159.272Z" fill="url(#paint6_linear_602_3968)"/>
<path d="M197.413 41.4018V77.6401H229.081L252.954 53.7735H349.322V74.7176H1327V76.6658H347.373V55.7217H253.831L230.055 79.4909H195.464V41.4018C193.905 40.9147 192.736 39.5509 192.736 37.7975C192.736 35.7517 194.392 34.0957 196.438 34.0957C198.485 34.0957 200.141 35.7517 200.141 37.7975C200.141 39.5509 198.972 40.9147 197.413 41.4018Z" fill="url(#paint7_linear_602_3968)"/>
<path d="M339.383 63.9034V84.7501H1327V82.8018H341.332V61.8576H257.046L233.174 85.7242H185.818V56.1102C187.377 55.6231 188.546 54.2593 188.546 52.5059C188.546 50.4602 186.89 48.8041 184.843 48.8041C182.797 48.8041 181.141 50.4602 181.141 52.5059C181.141 54.2593 182.31 55.6231 183.869 56.1102V87.7699H234.051L257.923 63.9033L339.383 63.9034Z" fill="url(#paint8_linear_602_3968)"/>
<path d="M237.363 96.7323H149.375C148.985 98.291 147.524 99.46 145.77 99.46C143.724 99.46 142.067 97.8039 142.067 95.7582C142.067 93.7125 143.724 92.0564 145.77 92.0564C147.524 92.0564 148.985 93.2254 149.375 94.7841H236.486L260.359 70.9175H331.88V91.8617H1327V93.81L330.029 93.8099V72.8658H261.236L237.363 96.7323Z" fill="url(#paint9_linear_602_3968)"/>
<path d="M277.899 82.8023C277.412 81.2438 276.048 80.0748 274.294 80.0748C272.247 80.0748 270.591 81.7308 270.591 83.7765C270.591 85.8222 272.247 87.4783 274.294 87.4783C276.048 87.4783 277.412 86.3093 277.899 84.7506H319.506V105.695H1327V103.746H321.455V82.8023H277.899Z" fill="url(#paint10_linear_602_3968)"/>
<path d="M261.82 88.1606C263.574 88.1606 265.036 89.3296 265.426 90.8882H313.464V111.832H1327V113.781H311.417V92.8365H265.426C264.939 94.3951 263.574 95.5641 261.82 95.5641C259.774 95.5641 258.118 93.9081 258.118 91.8624C258.118 89.8167 259.774 88.1606 261.82 88.1606Z" fill="url(#paint11_linear_602_3968)"/>
<path d="M256.461 101.992H302.063V122.937H1327V120.988H304.012V100.044H256.461C256.071 98.4856 254.61 97.3166 252.856 97.3166C250.81 97.3166 249.153 98.9727 249.153 101.018C249.153 103.064 250.81 104.72 252.856 104.72C254.61 104.72 256.071 103.551 256.461 101.992Z" fill="url(#paint12_linear_602_3968)"/>
<path d="M263.575 120.697V132.582H204.818V109.592H279.068V130.536H1327V132.484H277.021V111.54H206.767V130.536H261.528V122.645H230.055C229.568 124.204 228.204 125.373 226.45 125.373C224.404 125.373 222.747 123.717 222.747 121.671C222.747 119.626 224.404 117.97 226.45 117.97C228.204 117.97 229.665 119.138 230.055 120.697H263.575Z" fill="url(#paint13_linear_602_3968)"/>
<defs>
<linearGradient id="paint0_linear_602_3968" x1="663.5" y1="0" x2="663.5" y2="162" gradientUnits="userSpaceOnUse">
<stop stop-color="#24C0EB"/>
<stop offset="1" stop-color="#6BD369"/>
</linearGradient>
<linearGradient id="paint1_linear_602_3968" x1="663.5" y1="0" x2="663.5" y2="162" gradientUnits="userSpaceOnUse">
<stop stop-color="#24C0EB"/>
<stop offset="1" stop-color="#6BD369"/>
</linearGradient>
<linearGradient id="paint2_linear_602_3968" x1="663.5" y1="0" x2="663.5" y2="162" gradientUnits="userSpaceOnUse">
<stop stop-color="#24C0EB"/>
<stop offset="1" stop-color="#6BD369"/>
</linearGradient>
<linearGradient id="paint3_linear_602_3968" x1="663.5" y1="0" x2="663.5" y2="162" gradientUnits="userSpaceOnUse">
<stop stop-color="#24C0EB"/>
<stop offset="1" stop-color="#6BD369"/>
</linearGradient>
<linearGradient id="paint4_linear_602_3968" x1="663.5" y1="0" x2="663.5" y2="162" gradientUnits="userSpaceOnUse">
<stop stop-color="#24C0EB"/>
<stop offset="1" stop-color="#6BD369"/>
</linearGradient>
<linearGradient id="paint5_linear_602_3968" x1="663.5" y1="0" x2="663.5" y2="162" gradientUnits="userSpaceOnUse">
<stop stop-color="#24C0EB"/>
<stop offset="1" stop-color="#6BD369"/>
</linearGradient>
<linearGradient id="paint6_linear_602_3968" x1="663.5" y1="0" x2="663.5" y2="162" gradientUnits="userSpaceOnUse">
<stop stop-color="#24C0EB"/>
<stop offset="1" stop-color="#6BD369"/>
</linearGradient>
<linearGradient id="paint7_linear_602_3968" x1="663.5" y1="0" x2="663.5" y2="162" gradientUnits="userSpaceOnUse">
<stop stop-color="#24C0EB"/>
<stop offset="1" stop-color="#6BD369"/>
</linearGradient>
<linearGradient id="paint8_linear_602_3968" x1="663.5" y1="0" x2="663.5" y2="162" gradientUnits="userSpaceOnUse">
<stop stop-color="#24C0EB"/>
<stop offset="1" stop-color="#6BD369"/>
</linearGradient>
<linearGradient id="paint9_linear_602_3968" x1="663.5" y1="0" x2="663.5" y2="162" gradientUnits="userSpaceOnUse">
<stop stop-color="#24C0EB"/>
<stop offset="1" stop-color="#6BD369"/>
</linearGradient>
<linearGradient id="paint10_linear_602_3968" x1="663.5" y1="0" x2="663.5" y2="162" gradientUnits="userSpaceOnUse">
<stop stop-color="#24C0EB"/>
<stop offset="1" stop-color="#6BD369"/>
</linearGradient>
<linearGradient id="paint11_linear_602_3968" x1="663.5" y1="0" x2="663.5" y2="162" gradientUnits="userSpaceOnUse">
<stop stop-color="#24C0EB"/>
<stop offset="1" stop-color="#6BD369"/>
</linearGradient>
<linearGradient id="paint12_linear_602_3968" x1="663.5" y1="0" x2="663.5" y2="162" gradientUnits="userSpaceOnUse">
<stop stop-color="#24C0EB"/>
<stop offset="1" stop-color="#6BD369"/>
</linearGradient>
<linearGradient id="paint13_linear_602_3968" x1="663.5" y1="0" x2="663.5" y2="162" gradientUnits="userSpaceOnUse">
<stop stop-color="#24C0EB"/>
<stop offset="1" stop-color="#6BD369"/>
</linearGradient>
</defs>
</svg>
